G04 #@! TF.GenerationSoftware,KiCad,Pcbnew,5.1.10*
G04 #@! TF.CreationDate,2021-12-04T16:20:11-06:00*
G04 #@! TF.ProjectId,estacion-esp32,65737461-6369-46f6-9e2d-65737033322e,rev?*
G04 #@! TF.SameCoordinates,Original*
G04 #@! TF.FileFunction,Legend,Top*
G04 #@! TF.FilePolarity,Positive*
%FSLAX46Y46*%
G04 Gerber Fmt 4.6, Leading zero omitted, Abs format (unit mm)*
G04 Created by KiCad (PCBNEW 5.1.10) date 2021-12-04 16:20:11*
%MOMM*%
%LPD*%
G01*
G04 APERTURE LIST*
%ADD10C,0.150000*%
%ADD11C,0.120000*%
G04 APERTURE END LIST*
D10*
X122677333Y-104045333D02*
X122677333Y-103245333D01*
X124077333Y-103645333D02*
X122677333Y-103645333D01*
X122677333Y-102978666D02*
X122677333Y-102178666D01*
X124077333Y-102578666D02*
X122677333Y-102578666D01*
X123544000Y-101712000D02*
X123544000Y-100645333D01*
X122810666Y-100045333D02*
X122744000Y-99978666D01*
X122677333Y-99845333D01*
X122677333Y-99512000D01*
X122744000Y-99378666D01*
X122810666Y-99312000D01*
X122944000Y-99245333D01*
X123077333Y-99245333D01*
X123277333Y-99312000D01*
X124077333Y-100112000D01*
X124077333Y-99245333D01*
X122677333Y-98378666D02*
X122677333Y-98245333D01*
X122744000Y-98112000D01*
X122810666Y-98045333D01*
X122944000Y-97978666D01*
X123210666Y-97912000D01*
X123544000Y-97912000D01*
X123810666Y-97978666D01*
X123944000Y-98045333D01*
X124010666Y-98112000D01*
X124077333Y-98245333D01*
X124077333Y-98378666D01*
X124010666Y-98512000D01*
X123944000Y-98578666D01*
X123810666Y-98645333D01*
X123544000Y-98712000D01*
X123210666Y-98712000D01*
X122944000Y-98645333D01*
X122810666Y-98578666D01*
X122744000Y-98512000D01*
X122677333Y-98378666D01*
X122810666Y-97378666D02*
X122744000Y-97312000D01*
X122677333Y-97178666D01*
X122677333Y-96845333D01*
X122744000Y-96712000D01*
X122810666Y-96645333D01*
X122944000Y-96578666D01*
X123077333Y-96578666D01*
X123277333Y-96645333D01*
X124077333Y-97445333D01*
X124077333Y-96578666D01*
X122677333Y-95712000D02*
X122677333Y-95578666D01*
X122744000Y-95445333D01*
X122810666Y-95378666D01*
X122944000Y-95312000D01*
X123210666Y-95245333D01*
X123544000Y-95245333D01*
X123810666Y-95312000D01*
X123944000Y-95378666D01*
X124010666Y-95445333D01*
X124077333Y-95578666D01*
X124077333Y-95712000D01*
X124010666Y-95845333D01*
X123944000Y-95912000D01*
X123810666Y-95978666D01*
X123544000Y-96045333D01*
X123210666Y-96045333D01*
X122944000Y-95978666D01*
X122810666Y-95912000D01*
X122744000Y-95845333D01*
X122677333Y-95712000D01*
X123544000Y-94645333D02*
X123544000Y-93578666D01*
X123344000Y-92445333D02*
X123410666Y-92245333D01*
X123477333Y-92178666D01*
X123610666Y-92112000D01*
X123810666Y-92112000D01*
X123944000Y-92178666D01*
X124010666Y-92245333D01*
X124077333Y-92378666D01*
X124077333Y-92912000D01*
X122677333Y-92912000D01*
X122677333Y-92445333D01*
X122744000Y-92312000D01*
X122810666Y-92245333D01*
X122944000Y-92178666D01*
X123077333Y-92178666D01*
X123210666Y-92245333D01*
X123277333Y-92312000D01*
X123344000Y-92445333D01*
X123344000Y-92912000D01*
X122677333Y-91245333D02*
X122677333Y-91112000D01*
X122744000Y-90978666D01*
X122810666Y-90912000D01*
X122944000Y-90845333D01*
X123210666Y-90778666D01*
X123544000Y-90778666D01*
X123810666Y-90845333D01*
X123944000Y-90912000D01*
X124010666Y-90978666D01*
X124077333Y-91112000D01*
X124077333Y-91245333D01*
X124010666Y-91378666D01*
X123944000Y-91445333D01*
X123810666Y-91512000D01*
X123544000Y-91578666D01*
X123210666Y-91578666D01*
X122944000Y-91512000D01*
X122810666Y-91445333D01*
X122744000Y-91378666D01*
X122677333Y-91245333D01*
X122677333Y-90312000D02*
X122677333Y-89445333D01*
X123210666Y-89912000D01*
X123210666Y-89712000D01*
X123277333Y-89578666D01*
X123344000Y-89512000D01*
X123477333Y-89445333D01*
X123810666Y-89445333D01*
X123944000Y-89512000D01*
X124010666Y-89578666D01*
X124077333Y-89712000D01*
X124077333Y-90112000D01*
X124010666Y-90245333D01*
X123944000Y-90312000D01*
X124077333Y-88112000D02*
X124077333Y-88912000D01*
X124077333Y-88512000D02*
X122677333Y-88512000D01*
X122877333Y-88645333D01*
X123010666Y-88778666D01*
X123077333Y-88912000D01*
X158484857Y-67606771D02*
X158513428Y-67521057D01*
X158513428Y-67378200D01*
X158484857Y-67321057D01*
X158456285Y-67292485D01*
X158399142Y-67263914D01*
X158342000Y-67263914D01*
X158284857Y-67292485D01*
X158256285Y-67321057D01*
X158227714Y-67378200D01*
X158199142Y-67492485D01*
X158170571Y-67549628D01*
X158142000Y-67578200D01*
X158084857Y-67606771D01*
X158027714Y-67606771D01*
X157970571Y-67578200D01*
X157942000Y-67549628D01*
X157913428Y-67492485D01*
X157913428Y-67349628D01*
X157942000Y-67263914D01*
X158513428Y-67006771D02*
X157913428Y-67006771D01*
X157913428Y-66863914D01*
X157942000Y-66778200D01*
X157999142Y-66721057D01*
X158056285Y-66692485D01*
X158170571Y-66663914D01*
X158256285Y-66663914D01*
X158370571Y-66692485D01*
X158427714Y-66721057D01*
X158484857Y-66778200D01*
X158513428Y-66863914D01*
X158513428Y-67006771D01*
X158342000Y-66435342D02*
X158342000Y-66149628D01*
X158513428Y-66492485D02*
X157913428Y-66292485D01*
X158513428Y-66092485D01*
X161075657Y-67617885D02*
X161104228Y-67532171D01*
X161104228Y-67389314D01*
X161075657Y-67332171D01*
X161047085Y-67303600D01*
X160989942Y-67275028D01*
X160932800Y-67275028D01*
X160875657Y-67303600D01*
X160847085Y-67332171D01*
X160818514Y-67389314D01*
X160789942Y-67503600D01*
X160761371Y-67560742D01*
X160732800Y-67589314D01*
X160675657Y-67617885D01*
X160618514Y-67617885D01*
X160561371Y-67589314D01*
X160532800Y-67560742D01*
X160504228Y-67503600D01*
X160504228Y-67360742D01*
X160532800Y-67275028D01*
X161047085Y-66675028D02*
X161075657Y-66703600D01*
X161104228Y-66789314D01*
X161104228Y-66846457D01*
X161075657Y-66932171D01*
X161018514Y-66989314D01*
X160961371Y-67017885D01*
X160847085Y-67046457D01*
X160761371Y-67046457D01*
X160647085Y-67017885D01*
X160589942Y-66989314D01*
X160532800Y-66932171D01*
X160504228Y-66846457D01*
X160504228Y-66789314D01*
X160532800Y-66703600D01*
X160561371Y-66675028D01*
X161104228Y-66132171D02*
X161104228Y-66417885D01*
X160504228Y-66417885D01*
X165981057Y-68240142D02*
X165981057Y-67783000D01*
X166209628Y-68011571D02*
X165752485Y-68011571D01*
X165609628Y-67554428D02*
X165609628Y-67183000D01*
X165838200Y-67383000D01*
X165838200Y-67297285D01*
X165866771Y-67240142D01*
X165895342Y-67211571D01*
X165952485Y-67183000D01*
X166095342Y-67183000D01*
X166152485Y-67211571D01*
X166181057Y-67240142D01*
X166209628Y-67297285D01*
X166209628Y-67468714D01*
X166181057Y-67525857D01*
X166152485Y-67554428D01*
X165609628Y-67011571D02*
X166209628Y-66811571D01*
X165609628Y-66611571D01*
X165609628Y-66468714D02*
X165609628Y-66097285D01*
X165838200Y-66297285D01*
X165838200Y-66211571D01*
X165866771Y-66154428D01*
X165895342Y-66125857D01*
X165952485Y-66097285D01*
X166095342Y-66097285D01*
X166152485Y-66125857D01*
X166181057Y-66154428D01*
X166209628Y-66211571D01*
X166209628Y-66383000D01*
X166181057Y-66440142D01*
X166152485Y-66468714D01*
X163123600Y-67386142D02*
X163095028Y-67443285D01*
X163095028Y-67529000D01*
X163123600Y-67614714D01*
X163180742Y-67671857D01*
X163237885Y-67700428D01*
X163352171Y-67729000D01*
X163437885Y-67729000D01*
X163552171Y-67700428D01*
X163609314Y-67671857D01*
X163666457Y-67614714D01*
X163695028Y-67529000D01*
X163695028Y-67471857D01*
X163666457Y-67386142D01*
X163637885Y-67357571D01*
X163437885Y-67357571D01*
X163437885Y-67471857D01*
X163695028Y-67100428D02*
X163095028Y-67100428D01*
X163695028Y-66757571D01*
X163095028Y-66757571D01*
X163695028Y-66471857D02*
X163095028Y-66471857D01*
X163095028Y-66329000D01*
X163123600Y-66243285D01*
X163180742Y-66186142D01*
X163237885Y-66157571D01*
X163352171Y-66129000D01*
X163437885Y-66129000D01*
X163552171Y-66157571D01*
X163609314Y-66186142D01*
X163666457Y-66243285D01*
X163695028Y-66329000D01*
X163695028Y-66471857D01*
X150982400Y-68732342D02*
X150953828Y-68789485D01*
X150953828Y-68875200D01*
X150982400Y-68960914D01*
X151039542Y-69018057D01*
X151096685Y-69046628D01*
X151210971Y-69075200D01*
X151296685Y-69075200D01*
X151410971Y-69046628D01*
X151468114Y-69018057D01*
X151525257Y-68960914D01*
X151553828Y-68875200D01*
X151553828Y-68818057D01*
X151525257Y-68732342D01*
X151496685Y-68703771D01*
X151296685Y-68703771D01*
X151296685Y-68818057D01*
X151553828Y-68446628D02*
X150953828Y-68446628D01*
X151553828Y-68103771D01*
X150953828Y-68103771D01*
X151553828Y-67818057D02*
X150953828Y-67818057D01*
X150953828Y-67675200D01*
X150982400Y-67589485D01*
X151039542Y-67532342D01*
X151096685Y-67503771D01*
X151210971Y-67475200D01*
X151296685Y-67475200D01*
X151410971Y-67503771D01*
X151468114Y-67532342D01*
X151525257Y-67589485D01*
X151553828Y-67675200D01*
X151553828Y-67818057D01*
X148972628Y-69126000D02*
X149572628Y-68926000D01*
X148972628Y-68726000D01*
X149515485Y-68183142D02*
X149544057Y-68211714D01*
X149572628Y-68297428D01*
X149572628Y-68354571D01*
X149544057Y-68440285D01*
X149486914Y-68497428D01*
X149429771Y-68526000D01*
X149315485Y-68554571D01*
X149229771Y-68554571D01*
X149115485Y-68526000D01*
X149058342Y-68497428D01*
X149001200Y-68440285D01*
X148972628Y-68354571D01*
X148972628Y-68297428D01*
X149001200Y-68211714D01*
X149029771Y-68183142D01*
X149515485Y-67583142D02*
X149544057Y-67611714D01*
X149572628Y-67697428D01*
X149572628Y-67754571D01*
X149544057Y-67840285D01*
X149486914Y-67897428D01*
X149429771Y-67926000D01*
X149315485Y-67954571D01*
X149229771Y-67954571D01*
X149115485Y-67926000D01*
X149058342Y-67897428D01*
X149001200Y-67840285D01*
X148972628Y-67754571D01*
X148972628Y-67697428D01*
X149001200Y-67611714D01*
X149029771Y-67583142D01*
X140514428Y-67909942D02*
X141114428Y-67709942D01*
X140514428Y-67509942D01*
X140514428Y-67195657D02*
X140514428Y-67081371D01*
X140543000Y-67024228D01*
X140600142Y-66967085D01*
X140714428Y-66938514D01*
X140914428Y-66938514D01*
X141028714Y-66967085D01*
X141085857Y-67024228D01*
X141114428Y-67081371D01*
X141114428Y-67195657D01*
X141085857Y-67252800D01*
X141028714Y-67309942D01*
X140914428Y-67338514D01*
X140714428Y-67338514D01*
X140600142Y-67309942D01*
X140543000Y-67252800D01*
X140514428Y-67195657D01*
X140514428Y-66681371D02*
X141000142Y-66681371D01*
X141057285Y-66652800D01*
X141085857Y-66624228D01*
X141114428Y-66567085D01*
X141114428Y-66452800D01*
X141085857Y-66395657D01*
X141057285Y-66367085D01*
X141000142Y-66338514D01*
X140514428Y-66338514D01*
X140514428Y-66138514D02*
X140514428Y-65795657D01*
X141114428Y-65967085D02*
X140514428Y-65967085D01*
X138371257Y-68011542D02*
X138371257Y-67554400D01*
X138599828Y-67782971D02*
X138142685Y-67782971D01*
X137999828Y-67325828D02*
X137999828Y-66954400D01*
X138228400Y-67154400D01*
X138228400Y-67068685D01*
X138256971Y-67011542D01*
X138285542Y-66982971D01*
X138342685Y-66954400D01*
X138485542Y-66954400D01*
X138542685Y-66982971D01*
X138571257Y-67011542D01*
X138599828Y-67068685D01*
X138599828Y-67240114D01*
X138571257Y-67297257D01*
X138542685Y-67325828D01*
X137999828Y-66782971D02*
X138599828Y-66582971D01*
X137999828Y-66382971D01*
X137999828Y-66240114D02*
X137999828Y-65868685D01*
X138228400Y-66068685D01*
X138228400Y-65982971D01*
X138256971Y-65925828D01*
X138285542Y-65897257D01*
X138342685Y-65868685D01*
X138485542Y-65868685D01*
X138542685Y-65897257D01*
X138571257Y-65925828D01*
X138599828Y-65982971D01*
X138599828Y-66154400D01*
X138571257Y-66211542D01*
X138542685Y-66240114D01*
X135463000Y-67106742D02*
X135434428Y-67163885D01*
X135434428Y-67249600D01*
X135463000Y-67335314D01*
X135520142Y-67392457D01*
X135577285Y-67421028D01*
X135691571Y-67449600D01*
X135777285Y-67449600D01*
X135891571Y-67421028D01*
X135948714Y-67392457D01*
X136005857Y-67335314D01*
X136034428Y-67249600D01*
X136034428Y-67192457D01*
X136005857Y-67106742D01*
X135977285Y-67078171D01*
X135777285Y-67078171D01*
X135777285Y-67192457D01*
X136034428Y-66821028D02*
X135434428Y-66821028D01*
X136034428Y-66478171D01*
X135434428Y-66478171D01*
X136034428Y-66192457D02*
X135434428Y-66192457D01*
X135434428Y-66049600D01*
X135463000Y-65963885D01*
X135520142Y-65906742D01*
X135577285Y-65878171D01*
X135691571Y-65849600D01*
X135777285Y-65849600D01*
X135891571Y-65878171D01*
X135948714Y-65906742D01*
X136005857Y-65963885D01*
X136034428Y-66049600D01*
X136034428Y-66192457D01*
X126709542Y-110574142D02*
X126909542Y-110574142D01*
X126995257Y-110888428D02*
X126709542Y-110888428D01*
X126709542Y-110288428D01*
X126995257Y-110288428D01*
X127252400Y-110888428D02*
X127252400Y-110288428D01*
X127595257Y-110888428D01*
X127595257Y-110288428D01*
X125511057Y-108256428D02*
X125711057Y-108856428D01*
X125911057Y-108256428D01*
X126225342Y-108256428D02*
X126339628Y-108256428D01*
X126396771Y-108285000D01*
X126453914Y-108342142D01*
X126482485Y-108456428D01*
X126482485Y-108656428D01*
X126453914Y-108770714D01*
X126396771Y-108827857D01*
X126339628Y-108856428D01*
X126225342Y-108856428D01*
X126168200Y-108827857D01*
X126111057Y-108770714D01*
X126082485Y-108656428D01*
X126082485Y-108456428D01*
X126111057Y-108342142D01*
X126168200Y-108285000D01*
X126225342Y-108256428D01*
X126739628Y-108256428D02*
X126739628Y-108742142D01*
X126768200Y-108799285D01*
X126796771Y-108827857D01*
X126853914Y-108856428D01*
X126968200Y-108856428D01*
X127025342Y-108827857D01*
X127053914Y-108799285D01*
X127082485Y-108742142D01*
X127082485Y-108256428D01*
X127282485Y-108256428D02*
X127625342Y-108256428D01*
X127453914Y-108856428D02*
X127453914Y-108256428D01*
X125536457Y-106646657D02*
X125993600Y-106646657D01*
X125765028Y-106875228D02*
X125765028Y-106418085D01*
X126222171Y-106275228D02*
X126593600Y-106275228D01*
X126393600Y-106503800D01*
X126479314Y-106503800D01*
X126536457Y-106532371D01*
X126565028Y-106560942D01*
X126593600Y-106618085D01*
X126593600Y-106760942D01*
X126565028Y-106818085D01*
X126536457Y-106846657D01*
X126479314Y-106875228D01*
X126307885Y-106875228D01*
X126250742Y-106846657D01*
X126222171Y-106818085D01*
X126765028Y-106275228D02*
X126965028Y-106875228D01*
X127165028Y-106275228D01*
X127307885Y-106275228D02*
X127679314Y-106275228D01*
X127479314Y-106503800D01*
X127565028Y-106503800D01*
X127622171Y-106532371D01*
X127650742Y-106560942D01*
X127679314Y-106618085D01*
X127679314Y-106760942D01*
X127650742Y-106818085D01*
X127622171Y-106846657D01*
X127565028Y-106875228D01*
X127393600Y-106875228D01*
X127336457Y-106846657D01*
X127307885Y-106818085D01*
X126390457Y-104348000D02*
X126333314Y-104319428D01*
X126247600Y-104319428D01*
X126161885Y-104348000D01*
X126104742Y-104405142D01*
X126076171Y-104462285D01*
X126047600Y-104576571D01*
X126047600Y-104662285D01*
X126076171Y-104776571D01*
X126104742Y-104833714D01*
X126161885Y-104890857D01*
X126247600Y-104919428D01*
X126304742Y-104919428D01*
X126390457Y-104890857D01*
X126419028Y-104862285D01*
X126419028Y-104662285D01*
X126304742Y-104662285D01*
X126676171Y-104919428D02*
X126676171Y-104319428D01*
X127019028Y-104919428D01*
X127019028Y-104319428D01*
X127304742Y-104919428D02*
X127304742Y-104319428D01*
X127447600Y-104319428D01*
X127533314Y-104348000D01*
X127590457Y-104405142D01*
X127619028Y-104462285D01*
X127647600Y-104576571D01*
X127647600Y-104662285D01*
X127619028Y-104776571D01*
X127590457Y-104833714D01*
X127533314Y-104890857D01*
X127447600Y-104919428D01*
X127304742Y-104919428D01*
D11*
X133500800Y-92750400D02*
X133500800Y-98990400D01*
X130760800Y-92750400D02*
X130760800Y-98990400D01*
X133500800Y-92750400D02*
X133055800Y-92750400D01*
X131205800Y-92750400D02*
X130760800Y-92750400D01*
X133500800Y-98990400D02*
X133055800Y-98990400D01*
X131205800Y-98990400D02*
X130760800Y-98990400D01*
X133077200Y-102537200D02*
X128357200Y-102537200D01*
X128357200Y-102537200D02*
X128357200Y-112657200D01*
X128357200Y-112657200D02*
X133077200Y-112657200D01*
X133077200Y-112657200D02*
X133077200Y-102537200D01*
X133077200Y-104297200D02*
X133277200Y-104297200D01*
X133277200Y-104297200D02*
X133277200Y-103997200D01*
X133277200Y-103997200D02*
X133077200Y-103997200D01*
X133177200Y-104297200D02*
X133177200Y-103997200D01*
X133077200Y-105097200D02*
X132467200Y-105097200D01*
X132467200Y-105097200D02*
X132467200Y-103147200D01*
X132467200Y-103147200D02*
X128967200Y-103147200D01*
X128967200Y-103147200D02*
X128967200Y-112047200D01*
X128967200Y-112047200D02*
X132467200Y-112047200D01*
X132467200Y-112047200D02*
X132467200Y-110097200D01*
X132467200Y-110097200D02*
X133077200Y-110097200D01*
X131767200Y-102537200D02*
X131767200Y-103147200D01*
X130467200Y-102537200D02*
X130467200Y-103147200D01*
X131767200Y-112657200D02*
X131767200Y-112047200D01*
X130467200Y-112657200D02*
X130467200Y-112047200D01*
X128967200Y-105497200D02*
X129467200Y-105497200D01*
X129467200Y-105497200D02*
X129467200Y-105697200D01*
X129467200Y-105697200D02*
X128967200Y-105697200D01*
X128967200Y-105597200D02*
X129467200Y-105597200D01*
X128967200Y-107497200D02*
X129467200Y-107497200D01*
X129467200Y-107497200D02*
X129467200Y-107697200D01*
X129467200Y-107697200D02*
X128967200Y-107697200D01*
X128967200Y-107597200D02*
X129467200Y-107597200D01*
X128967200Y-109497200D02*
X129467200Y-109497200D01*
X129467200Y-109497200D02*
X129467200Y-109697200D01*
X129467200Y-109697200D02*
X128967200Y-109697200D01*
X128967200Y-109597200D02*
X129467200Y-109597200D01*
X133377200Y-103487200D02*
X133377200Y-102237200D01*
X133377200Y-102237200D02*
X132127200Y-102237200D01*
X167242800Y-63957200D02*
X167242800Y-65287200D01*
X167242800Y-65287200D02*
X165912800Y-65287200D01*
X164642800Y-65287200D02*
X156962800Y-65287200D01*
X156962800Y-62627200D02*
X156962800Y-65287200D01*
X164642800Y-62627200D02*
X156962800Y-62627200D01*
X164642800Y-62627200D02*
X164642800Y-65287200D01*
X139449500Y-73342500D02*
X142109500Y-73342500D01*
X139449500Y-73342500D02*
X139449500Y-119122500D01*
X139449500Y-119122500D02*
X142109500Y-119122500D01*
X142109500Y-73342500D02*
X142109500Y-119122500D01*
X142109500Y-70742500D02*
X142109500Y-72072500D01*
X140779500Y-70742500D02*
X142109500Y-70742500D01*
X134433000Y-65147500D02*
X134433000Y-63817500D01*
X135763000Y-65147500D02*
X134433000Y-65147500D01*
X137033000Y-65147500D02*
X137033000Y-62487500D01*
X137033000Y-62487500D02*
X142173000Y-62487500D01*
X137033000Y-65147500D02*
X142173000Y-65147500D01*
X142173000Y-65147500D02*
X142173000Y-62487500D01*
X146865000Y-61644000D02*
X146865000Y-62894000D01*
X148115000Y-61644000D02*
X146865000Y-61644000D01*
X150225000Y-66054000D02*
X150225000Y-65554000D01*
X150325000Y-65554000D02*
X150325000Y-66054000D01*
X150125000Y-65554000D02*
X150325000Y-65554000D01*
X150125000Y-66054000D02*
X150125000Y-65554000D01*
X153285000Y-64554000D02*
X152675000Y-64554000D01*
X153285000Y-63254000D02*
X152675000Y-63254000D01*
X147165000Y-64554000D02*
X147775000Y-64554000D01*
X147165000Y-63254000D02*
X147775000Y-63254000D01*
X150725000Y-62554000D02*
X150725000Y-61944000D01*
X152675000Y-62554000D02*
X150725000Y-62554000D01*
X152675000Y-66054000D02*
X152675000Y-62554000D01*
X147775000Y-66054000D02*
X152675000Y-66054000D01*
X147775000Y-62554000D02*
X147775000Y-66054000D01*
X149725000Y-62554000D02*
X147775000Y-62554000D01*
X149725000Y-61944000D02*
X149725000Y-62554000D01*
X148925000Y-61844000D02*
X148625000Y-61844000D01*
X148625000Y-61744000D02*
X148625000Y-61944000D01*
X148925000Y-61744000D02*
X148625000Y-61744000D01*
X148925000Y-61944000D02*
X148925000Y-61744000D01*
X153285000Y-61944000D02*
X147165000Y-61944000D01*
X153285000Y-66664000D02*
X153285000Y-61944000D01*
X147165000Y-66664000D02*
X153285000Y-66664000D01*
X147165000Y-61944000D02*
X147165000Y-66664000D01*
X133055800Y-69970400D02*
X133500800Y-69970400D01*
X130760800Y-69970400D02*
X131205800Y-69970400D01*
X133055800Y-76210400D02*
X133500800Y-76210400D01*
X130760800Y-76210400D02*
X131205800Y-76210400D01*
X133500800Y-76210400D02*
X133500800Y-69970400D01*
X130760800Y-76210400D02*
X130760800Y-69970400D01*
X164722500Y-73342500D02*
X167382500Y-73342500D01*
X164722500Y-73342500D02*
X164722500Y-119122500D01*
X164722500Y-119122500D02*
X167382500Y-119122500D01*
X167382500Y-73342500D02*
X167382500Y-119122500D01*
X167382500Y-70742500D02*
X167382500Y-72072500D01*
X166052500Y-70742500D02*
X167382500Y-70742500D01*
X121736500Y-79371500D02*
X130366500Y-79371500D01*
X121736500Y-79489595D02*
X130366500Y-79489595D01*
X121736500Y-79607690D02*
X130366500Y-79607690D01*
X121736500Y-79725785D02*
X130366500Y-79725785D01*
X121736500Y-79843880D02*
X130366500Y-79843880D01*
X121736500Y-79961975D02*
X130366500Y-79961975D01*
X121736500Y-80080070D02*
X130366500Y-80080070D01*
X121736500Y-80198165D02*
X130366500Y-80198165D01*
X121736500Y-80316260D02*
X130366500Y-80316260D01*
X121736500Y-80434355D02*
X130366500Y-80434355D01*
X121736500Y-80552450D02*
X130366500Y-80552450D01*
X121736500Y-80670545D02*
X130366500Y-80670545D01*
X121736500Y-80788640D02*
X130366500Y-80788640D01*
X121736500Y-80906735D02*
X130366500Y-80906735D01*
X121736500Y-81024830D02*
X130366500Y-81024830D01*
X121736500Y-81142925D02*
X130366500Y-81142925D01*
X121736500Y-81261020D02*
X130366500Y-81261020D01*
X121736500Y-81379115D02*
X130366500Y-81379115D01*
X121736500Y-81497210D02*
X130366500Y-81497210D01*
X121736500Y-81615305D02*
X130366500Y-81615305D01*
X121736500Y-81733400D02*
X130366500Y-81733400D01*
X130366500Y-80221500D02*
X130716500Y-80221500D01*
X130366500Y-80941500D02*
X130716500Y-80941500D01*
X130366500Y-82761500D02*
X130776500Y-82761500D01*
X130366500Y-83481500D02*
X130776500Y-83481500D01*
X130366500Y-85301500D02*
X130776500Y-85301500D01*
X130366500Y-86021500D02*
X130776500Y-86021500D01*
X121736500Y-81851500D02*
X130366500Y-81851500D01*
X121736500Y-84391500D02*
X130366500Y-84391500D01*
X121736500Y-79251500D02*
X130366500Y-79251500D01*
X130366500Y-79251500D02*
X130366500Y-86991500D01*
X121736500Y-86991500D02*
X130366500Y-86991500D01*
X121736500Y-79251500D02*
X121736500Y-86991500D01*
X132936500Y-79251500D02*
X132936500Y-80581500D01*
X131826500Y-79251500D02*
X132936500Y-79251500D01*
D10*
X134987942Y-96037066D02*
X135035561Y-96084685D01*
X135083180Y-96227542D01*
X135083180Y-96322780D01*
X135035561Y-96465638D01*
X134940323Y-96560876D01*
X134845085Y-96608495D01*
X134654609Y-96656114D01*
X134511752Y-96656114D01*
X134321276Y-96608495D01*
X134226038Y-96560876D01*
X134130800Y-96465638D01*
X134083180Y-96322780D01*
X134083180Y-96227542D01*
X134130800Y-96084685D01*
X134178419Y-96037066D01*
X134178419Y-95656114D02*
X134130800Y-95608495D01*
X134083180Y-95513257D01*
X134083180Y-95275161D01*
X134130800Y-95179923D01*
X134178419Y-95132304D01*
X134273657Y-95084685D01*
X134368895Y-95084685D01*
X134511752Y-95132304D01*
X135083180Y-95703733D01*
X135083180Y-95084685D01*
X134619580Y-108382914D02*
X133619580Y-108382914D01*
X133619580Y-108001961D01*
X133667200Y-107906723D01*
X133714819Y-107859104D01*
X133810057Y-107811485D01*
X133952914Y-107811485D01*
X134048152Y-107859104D01*
X134095771Y-107906723D01*
X134143390Y-108001961D01*
X134143390Y-108382914D01*
X134619580Y-107382914D02*
X133619580Y-107382914D01*
X134095771Y-107382914D02*
X134095771Y-106811485D01*
X134619580Y-106811485D02*
X133619580Y-106811485D01*
X159796457Y-60863171D02*
X159939314Y-60910790D01*
X159986933Y-60958409D01*
X160034552Y-61053647D01*
X160034552Y-61196504D01*
X159986933Y-61291742D01*
X159939314Y-61339361D01*
X159844076Y-61386980D01*
X159463123Y-61386980D01*
X159463123Y-60386980D01*
X159796457Y-60386980D01*
X159891695Y-60434600D01*
X159939314Y-60482219D01*
X159986933Y-60577457D01*
X159986933Y-60672695D01*
X159939314Y-60767933D01*
X159891695Y-60815552D01*
X159796457Y-60863171D01*
X159463123Y-60863171D01*
X160463123Y-61386980D02*
X160463123Y-60386980D01*
X160463123Y-60863171D02*
X161034552Y-60863171D01*
X161034552Y-61386980D02*
X161034552Y-60386980D01*
X162034552Y-61386980D02*
X161463123Y-61386980D01*
X161748838Y-61386980D02*
X161748838Y-60386980D01*
X161653600Y-60529838D01*
X161558361Y-60625076D01*
X161463123Y-60672695D01*
X162367885Y-60386980D02*
X163034552Y-60386980D01*
X162605980Y-61386980D01*
X163891695Y-60386980D02*
X163415504Y-60386980D01*
X163367885Y-60863171D01*
X163415504Y-60815552D01*
X163510742Y-60767933D01*
X163748838Y-60767933D01*
X163844076Y-60815552D01*
X163891695Y-60863171D01*
X163939314Y-60958409D01*
X163939314Y-61196504D01*
X163891695Y-61291742D01*
X163844076Y-61339361D01*
X163748838Y-61386980D01*
X163510742Y-61386980D01*
X163415504Y-61339361D01*
X163367885Y-61291742D01*
X164558361Y-60386980D02*
X164653600Y-60386980D01*
X164748838Y-60434600D01*
X164796457Y-60482219D01*
X164844076Y-60577457D01*
X164891695Y-60767933D01*
X164891695Y-61006028D01*
X164844076Y-61196504D01*
X164796457Y-61291742D01*
X164748838Y-61339361D01*
X164653600Y-61386980D01*
X164558361Y-61386980D01*
X164463123Y-61339361D01*
X164415504Y-61291742D01*
X164367885Y-61196504D01*
X164320266Y-61006028D01*
X164320266Y-60767933D01*
X164367885Y-60577457D01*
X164415504Y-60482219D01*
X164463123Y-60434600D01*
X164558361Y-60386980D01*
X136042685Y-61513980D02*
X136042685Y-60513980D01*
X136042685Y-60990171D02*
X136614114Y-60990171D01*
X136614114Y-61513980D02*
X136614114Y-60513980D01*
X136995066Y-60513980D02*
X137233161Y-61513980D01*
X137423638Y-60799695D01*
X137614114Y-61513980D01*
X137852209Y-60513980D01*
X138137923Y-60513980D02*
X138756971Y-60513980D01*
X138423638Y-60894933D01*
X138566495Y-60894933D01*
X138661733Y-60942552D01*
X138709352Y-60990171D01*
X138756971Y-61085409D01*
X138756971Y-61323504D01*
X138709352Y-61418742D01*
X138661733Y-61466361D01*
X138566495Y-61513980D01*
X138280780Y-61513980D01*
X138185542Y-61466361D01*
X138137923Y-61418742D01*
X139233161Y-61513980D02*
X139423638Y-61513980D01*
X139518876Y-61466361D01*
X139566495Y-61418742D01*
X139661733Y-61275885D01*
X139709352Y-61085409D01*
X139709352Y-60704457D01*
X139661733Y-60609219D01*
X139614114Y-60561600D01*
X139518876Y-60513980D01*
X139328400Y-60513980D01*
X139233161Y-60561600D01*
X139185542Y-60609219D01*
X139137923Y-60704457D01*
X139137923Y-60942552D01*
X139185542Y-61037790D01*
X139233161Y-61085409D01*
X139328400Y-61133028D01*
X139518876Y-61133028D01*
X139614114Y-61085409D01*
X139661733Y-61037790D01*
X139709352Y-60942552D01*
X140328400Y-60513980D02*
X140423638Y-60513980D01*
X140518876Y-60561600D01*
X140566495Y-60609219D01*
X140614114Y-60704457D01*
X140661733Y-60894933D01*
X140661733Y-61133028D01*
X140614114Y-61323504D01*
X140566495Y-61418742D01*
X140518876Y-61466361D01*
X140423638Y-61513980D01*
X140328400Y-61513980D01*
X140233161Y-61466361D01*
X140185542Y-61418742D01*
X140137923Y-61323504D01*
X140090304Y-61133028D01*
X140090304Y-60894933D01*
X140137923Y-60704457D01*
X140185542Y-60609219D01*
X140233161Y-60561600D01*
X140328400Y-60513980D01*
X149506085Y-60736171D02*
X149648942Y-60783790D01*
X149696561Y-60831409D01*
X149744180Y-60926647D01*
X149744180Y-61069504D01*
X149696561Y-61164742D01*
X149648942Y-61212361D01*
X149553704Y-61259980D01*
X149172752Y-61259980D01*
X149172752Y-60259980D01*
X149506085Y-60259980D01*
X149601323Y-60307600D01*
X149648942Y-60355219D01*
X149696561Y-60450457D01*
X149696561Y-60545695D01*
X149648942Y-60640933D01*
X149601323Y-60688552D01*
X149506085Y-60736171D01*
X149172752Y-60736171D01*
X150029895Y-60259980D02*
X150601323Y-60259980D01*
X150315609Y-61259980D02*
X150315609Y-60259980D01*
X151458466Y-61259980D02*
X150887038Y-61259980D01*
X151172752Y-61259980D02*
X151172752Y-60259980D01*
X151077514Y-60402838D01*
X150982276Y-60498076D01*
X150887038Y-60545695D01*
X129987942Y-73257066D02*
X130035561Y-73304685D01*
X130083180Y-73447542D01*
X130083180Y-73542780D01*
X130035561Y-73685638D01*
X129940323Y-73780876D01*
X129845085Y-73828495D01*
X129654609Y-73876114D01*
X129511752Y-73876114D01*
X129321276Y-73828495D01*
X129226038Y-73780876D01*
X129130800Y-73685638D01*
X129083180Y-73542780D01*
X129083180Y-73447542D01*
X129130800Y-73304685D01*
X129178419Y-73257066D01*
X130083180Y-72304685D02*
X130083180Y-72876114D01*
X130083180Y-72590400D02*
X129083180Y-72590400D01*
X129226038Y-72685638D01*
X129321276Y-72780876D01*
X129368895Y-72876114D01*
X126232214Y-78263880D02*
X125756023Y-78263880D01*
X125756023Y-77263880D01*
X126565547Y-78263880D02*
X126565547Y-77263880D01*
X126898880Y-77978166D01*
X127232214Y-77263880D01*
X127232214Y-78263880D01*
X127613166Y-77263880D02*
X128232214Y-77263880D01*
X127898880Y-77644833D01*
X128041738Y-77644833D01*
X128136976Y-77692452D01*
X128184595Y-77740071D01*
X128232214Y-77835309D01*
X128232214Y-78073404D01*
X128184595Y-78168642D01*
X128136976Y-78216261D01*
X128041738Y-78263880D01*
X127756023Y-78263880D01*
X127660785Y-78216261D01*
X127613166Y-78168642D01*
X129136976Y-77263880D02*
X128660785Y-77263880D01*
X128613166Y-77740071D01*
X128660785Y-77692452D01*
X128756023Y-77644833D01*
X128994119Y-77644833D01*
X129089357Y-77692452D01*
X129136976Y-77740071D01*
X129184595Y-77835309D01*
X129184595Y-78073404D01*
X129136976Y-78168642D01*
X129089357Y-78216261D01*
X128994119Y-78263880D01*
X128756023Y-78263880D01*
X128660785Y-78216261D01*
X128613166Y-78168642D01*
M02*
