M48
INCH,TZ
T1C0.0157
T2C0.0295
T3C0.0315
T4C0.0394
%
G90
G05
T1
X53425Y-26940
T2
X51680Y-41180
X51680Y-41967
X51680Y-42755
X51680Y-43542
X58750Y-25100
X59537Y-25100
T3
X52020Y-27791
X52020Y-29760
X52020Y-36760
X52020Y-38729
T4
X51900Y-31725
X51900Y-32725
X51900Y-33725
X53450Y-25125
X54450Y-25125
X55425Y-28375
X55425Y-29375
X55425Y-30375
X55425Y-31375
X55425Y-32375
X55425Y-33375
X55425Y-34375
X55425Y-35375
X55425Y-36375
X55425Y-37375
X55425Y-38375
X55425Y-39375
X55425Y-40375
X55425Y-41375
X55425Y-42375
X55425Y-43375
X55425Y-44375
X55425Y-45375
X55425Y-46375
X55450Y-25125
X62320Y-25180
X63320Y-25180
X64320Y-25180
X65320Y-25180
X65375Y-28375
X65375Y-29375
X65375Y-30375
X65375Y-31375
X65375Y-32375
X65375Y-33375
X65375Y-34375
X65375Y-35375
X65375Y-36375
X65375Y-37375
X65375Y-38375
X65375Y-39375
X65375Y-40375
X65375Y-41375
X65375Y-42375
X65375Y-43375
X65375Y-44375
X65375Y-45375
X65375Y-46375
T0
M30
