G04 #@! TF.GenerationSoftware,KiCad,Pcbnew,5.1.10*
G04 #@! TF.CreationDate,2021-12-04T16:20:11-06:00*
G04 #@! TF.ProjectId,estacion-esp32,65737461-6369-46f6-9e2d-65737033322e,rev?*
G04 #@! TF.SameCoordinates,Original*
G04 #@! TF.FileFunction,Copper,L2,Bot*
G04 #@! TF.FilePolarity,Positive*
%FSLAX46Y46*%
G04 Gerber Fmt 4.6, Leading zero omitted, Abs format (unit mm)*
G04 Created by KiCad (PCBNEW 5.1.10) date 2021-12-04 16:20:11*
%MOMM*%
%LPD*%
G01*
G04 APERTURE LIST*
G04 #@! TA.AperFunction,ComponentPad*
%ADD10C,1.600000*%
G04 #@! TD*
G04 #@! TA.AperFunction,ComponentPad*
%ADD11O,1.750000X1.200000*%
G04 #@! TD*
G04 #@! TA.AperFunction,ComponentPad*
%ADD12O,1.700000X1.700000*%
G04 #@! TD*
G04 #@! TA.AperFunction,ComponentPad*
%ADD13R,1.700000X1.700000*%
G04 #@! TD*
G04 #@! TA.AperFunction,ComponentPad*
%ADD14O,1.200000X1.750000*%
G04 #@! TD*
G04 #@! TA.AperFunction,ViaPad*
%ADD15C,0.800000*%
G04 #@! TD*
G04 #@! TA.AperFunction,Conductor*
%ADD16C,0.400000*%
G04 #@! TD*
G04 APERTURE END LIST*
D10*
X132130800Y-98370400D03*
X132130800Y-93370400D03*
D11*
X131267200Y-110597200D03*
X131267200Y-108597200D03*
X131267200Y-106597200D03*
G04 #@! TA.AperFunction,ComponentPad*
G36*
G01*
X130642199Y-103997200D02*
X131892201Y-103997200D01*
G75*
G02*
X132142200Y-104247199I0J-249999D01*
G01*
X132142200Y-104947201D01*
G75*
G02*
X131892201Y-105197200I-249999J0D01*
G01*
X130642199Y-105197200D01*
G75*
G02*
X130392200Y-104947201I0J249999D01*
G01*
X130392200Y-104247199D01*
G75*
G02*
X130642199Y-103997200I249999J0D01*
G01*
G37*
G04 #@! TD.AperFunction*
D12*
X158292800Y-63957200D03*
X160832800Y-63957200D03*
X163372800Y-63957200D03*
D13*
X165912800Y-63957200D03*
D12*
X140779500Y-117792500D03*
X140779500Y-115252500D03*
X140779500Y-112712500D03*
X140779500Y-110172500D03*
X140779500Y-107632500D03*
X140779500Y-105092500D03*
X140779500Y-102552500D03*
X140779500Y-100012500D03*
X140779500Y-97472500D03*
X140779500Y-94932500D03*
X140779500Y-92392500D03*
X140779500Y-89852500D03*
X140779500Y-87312500D03*
X140779500Y-84772500D03*
X140779500Y-82232500D03*
X140779500Y-79692500D03*
X140779500Y-77152500D03*
X140779500Y-74612500D03*
D13*
X140779500Y-72072500D03*
X135763000Y-63817500D03*
D12*
X138303000Y-63817500D03*
X140843000Y-63817500D03*
G04 #@! TA.AperFunction,ComponentPad*
G36*
G01*
X148625000Y-64379001D02*
X148625000Y-63128999D01*
G75*
G02*
X148874999Y-62879000I249999J0D01*
G01*
X149575001Y-62879000D01*
G75*
G02*
X149825000Y-63128999I0J-249999D01*
G01*
X149825000Y-64379001D01*
G75*
G02*
X149575001Y-64629000I-249999J0D01*
G01*
X148874999Y-64629000D01*
G75*
G02*
X148625000Y-64379001I0J249999D01*
G01*
G37*
G04 #@! TD.AperFunction*
D14*
X151225000Y-63754000D03*
D10*
X132130800Y-75590400D03*
X132130800Y-70590400D03*
D12*
X166052500Y-117792500D03*
X166052500Y-115252500D03*
X166052500Y-112712500D03*
X166052500Y-110172500D03*
X166052500Y-107632500D03*
X166052500Y-105092500D03*
X166052500Y-102552500D03*
X166052500Y-100012500D03*
X166052500Y-97472500D03*
X166052500Y-94932500D03*
X166052500Y-92392500D03*
X166052500Y-89852500D03*
X166052500Y-87312500D03*
X166052500Y-84772500D03*
X166052500Y-82232500D03*
X166052500Y-79692500D03*
X166052500Y-77152500D03*
X166052500Y-74612500D03*
D13*
X166052500Y-72072500D03*
D12*
X131826500Y-85661500D03*
X131826500Y-83121500D03*
D13*
X131826500Y-80581500D03*
D15*
X135699500Y-68427600D03*
D16*
X151225000Y-63754000D02*
X151225000Y-65029000D01*
X151225000Y-65029000D02*
X147826400Y-68427600D01*
X147826400Y-68427600D02*
X135699500Y-68427600D01*
M02*
