G04 #@! TF.GenerationSoftware,KiCad,Pcbnew,5.1.10*
G04 #@! TF.CreationDate,2021-12-04T16:20:11-06:00*
G04 #@! TF.ProjectId,estacion-esp32,65737461-6369-46f6-9e2d-65737033322e,rev?*
G04 #@! TF.SameCoordinates,Original*
G04 #@! TF.FileFunction,Copper,L1,Top*
G04 #@! TF.FilePolarity,Positive*
%FSLAX46Y46*%
G04 Gerber Fmt 4.6, Leading zero omitted, Abs format (unit mm)*
G04 Created by KiCad (PCBNEW 5.1.10) date 2021-12-04 16:20:11*
%MOMM*%
%LPD*%
G01*
G04 APERTURE LIST*
G04 #@! TA.AperFunction,ComponentPad*
%ADD10C,1.600000*%
G04 #@! TD*
G04 #@! TA.AperFunction,ComponentPad*
%ADD11O,1.750000X1.200000*%
G04 #@! TD*
G04 #@! TA.AperFunction,ComponentPad*
%ADD12O,1.700000X1.700000*%
G04 #@! TD*
G04 #@! TA.AperFunction,ComponentPad*
%ADD13R,1.700000X1.700000*%
G04 #@! TD*
G04 #@! TA.AperFunction,ComponentPad*
%ADD14O,1.200000X1.750000*%
G04 #@! TD*
G04 #@! TA.AperFunction,ViaPad*
%ADD15C,0.800000*%
G04 #@! TD*
G04 #@! TA.AperFunction,Conductor*
%ADD16C,0.400000*%
G04 #@! TD*
G04 #@! TA.AperFunction,Conductor*
%ADD17C,0.200000*%
G04 #@! TD*
G04 #@! TA.AperFunction,Conductor*
%ADD18C,0.254000*%
G04 #@! TD*
G04 #@! TA.AperFunction,Conductor*
%ADD19C,0.100000*%
G04 #@! TD*
G04 APERTURE END LIST*
D10*
X132130800Y-98370400D03*
X132130800Y-93370400D03*
D11*
X131267200Y-110597200D03*
X131267200Y-108597200D03*
X131267200Y-106597200D03*
G04 #@! TA.AperFunction,ComponentPad*
G36*
G01*
X130642199Y-103997200D02*
X131892201Y-103997200D01*
G75*
G02*
X132142200Y-104247199I0J-249999D01*
G01*
X132142200Y-104947201D01*
G75*
G02*
X131892201Y-105197200I-249999J0D01*
G01*
X130642199Y-105197200D01*
G75*
G02*
X130392200Y-104947201I0J249999D01*
G01*
X130392200Y-104247199D01*
G75*
G02*
X130642199Y-103997200I249999J0D01*
G01*
G37*
G04 #@! TD.AperFunction*
D12*
X158292800Y-63957200D03*
X160832800Y-63957200D03*
X163372800Y-63957200D03*
D13*
X165912800Y-63957200D03*
D12*
X140779500Y-117792500D03*
X140779500Y-115252500D03*
X140779500Y-112712500D03*
X140779500Y-110172500D03*
X140779500Y-107632500D03*
X140779500Y-105092500D03*
X140779500Y-102552500D03*
X140779500Y-100012500D03*
X140779500Y-97472500D03*
X140779500Y-94932500D03*
X140779500Y-92392500D03*
X140779500Y-89852500D03*
X140779500Y-87312500D03*
X140779500Y-84772500D03*
X140779500Y-82232500D03*
X140779500Y-79692500D03*
X140779500Y-77152500D03*
X140779500Y-74612500D03*
D13*
X140779500Y-72072500D03*
X135763000Y-63817500D03*
D12*
X138303000Y-63817500D03*
X140843000Y-63817500D03*
G04 #@! TA.AperFunction,ComponentPad*
G36*
G01*
X148625000Y-64379001D02*
X148625000Y-63128999D01*
G75*
G02*
X148874999Y-62879000I249999J0D01*
G01*
X149575001Y-62879000D01*
G75*
G02*
X149825000Y-63128999I0J-249999D01*
G01*
X149825000Y-64379001D01*
G75*
G02*
X149575001Y-64629000I-249999J0D01*
G01*
X148874999Y-64629000D01*
G75*
G02*
X148625000Y-64379001I0J249999D01*
G01*
G37*
G04 #@! TD.AperFunction*
D14*
X151225000Y-63754000D03*
D10*
X132130800Y-75590400D03*
X132130800Y-70590400D03*
D12*
X166052500Y-117792500D03*
X166052500Y-115252500D03*
X166052500Y-112712500D03*
X166052500Y-110172500D03*
X166052500Y-107632500D03*
X166052500Y-105092500D03*
X166052500Y-102552500D03*
X166052500Y-100012500D03*
X166052500Y-97472500D03*
X166052500Y-94932500D03*
X166052500Y-92392500D03*
X166052500Y-89852500D03*
X166052500Y-87312500D03*
X166052500Y-84772500D03*
X166052500Y-82232500D03*
X166052500Y-79692500D03*
X166052500Y-77152500D03*
X166052500Y-74612500D03*
D13*
X166052500Y-72072500D03*
D12*
X131826500Y-85661500D03*
X131826500Y-83121500D03*
D13*
X131826500Y-80581500D03*
D15*
X135699500Y-68427600D03*
D16*
X140779500Y-72072500D02*
X140906500Y-72072500D01*
X140906500Y-72072500D02*
X149225000Y-63754000D01*
X138303000Y-69596000D02*
X140779500Y-72072500D01*
X138303000Y-63817500D02*
X138303000Y-69596000D01*
X129892191Y-107972209D02*
X131267200Y-106597200D01*
X129892191Y-111731190D02*
X129892191Y-107972209D01*
X138353801Y-120192800D02*
X129892191Y-111731190D01*
X149225000Y-63754000D02*
X149225000Y-114300000D01*
X143332200Y-120192800D02*
X138353801Y-120192800D01*
X149225000Y-114300000D02*
X143332200Y-120192800D01*
X132270500Y-80581500D02*
X140779500Y-72072500D01*
X131826500Y-80581500D02*
X132270500Y-80581500D01*
X149225000Y-63754000D02*
X151071812Y-61907188D01*
X151071812Y-61907188D02*
X163862788Y-61907188D01*
X163862788Y-61907188D02*
X165912800Y-63957200D01*
X151410499Y-63939499D02*
X151225000Y-63754000D01*
X166052500Y-72072500D02*
X166248001Y-71876999D01*
X135763000Y-63817500D02*
X135763000Y-68364100D01*
X132130800Y-70590400D02*
X134293600Y-68427600D01*
X135763000Y-68364100D02*
X135699500Y-68427600D01*
X134293600Y-68427600D02*
X135699500Y-68427600D01*
X151225000Y-113341400D02*
X151225000Y-63754000D01*
X143673589Y-120892811D02*
X151225000Y-113341400D01*
X138063847Y-120892811D02*
X143673589Y-120892811D01*
X129192180Y-112021144D02*
X138063847Y-120892811D01*
X129192180Y-106672220D02*
X129192180Y-112021144D01*
X131267200Y-104597200D02*
X129192180Y-106672220D01*
X129590800Y-73130400D02*
X129590800Y-83425800D01*
X129590800Y-83425800D02*
X131826500Y-85661500D01*
X132130800Y-70590400D02*
X129590800Y-73130400D01*
X163372800Y-70642800D02*
X163372800Y-63957200D01*
X164802500Y-72072500D02*
X163372800Y-70642800D01*
X166052500Y-72072500D02*
X164802500Y-72072500D01*
X152371801Y-62607199D02*
X151225000Y-63754000D01*
X162022799Y-62607199D02*
X152371801Y-62607199D01*
X163372800Y-63957200D02*
X162022799Y-62607199D01*
X132130800Y-103733600D02*
X131267200Y-104597200D01*
X132130800Y-98370400D02*
X132130800Y-103733600D01*
D17*
X140779500Y-82558502D02*
X140779500Y-82232500D01*
X130576499Y-81871499D02*
X131826500Y-83121500D01*
X130576499Y-77144701D02*
X130576499Y-81871499D01*
X132130800Y-75590400D02*
X130576499Y-77144701D01*
X139890500Y-83121500D02*
X140779500Y-82232500D01*
X131826500Y-83121500D02*
X139890500Y-83121500D01*
X140843000Y-63817500D02*
X140906500Y-63817500D01*
X140728700Y-84772500D02*
X140779500Y-84772500D01*
X140843000Y-63817500D02*
X139592999Y-62567499D01*
X139592999Y-62567499D02*
X134592999Y-62567499D01*
X134592999Y-62567499D02*
X128371600Y-68788898D01*
X128371600Y-68788898D02*
X128371600Y-89255600D01*
X132181600Y-93370400D02*
X132130800Y-93370400D01*
X132130800Y-93014800D02*
X132130800Y-93370400D01*
X128371600Y-89255600D02*
X132130800Y-93014800D01*
X140779500Y-84772500D02*
X132181600Y-93370400D01*
X158292800Y-85285798D02*
X158292800Y-63957200D01*
X165399502Y-92392500D02*
X158292800Y-85285798D01*
X166052500Y-92392500D02*
X165399502Y-92392500D01*
X160832800Y-84632800D02*
X160832800Y-63957200D01*
X166052500Y-89852500D02*
X160832800Y-84632800D01*
X140779500Y-87312500D02*
X137096500Y-90995500D01*
X137096500Y-102767900D02*
X131267200Y-108597200D01*
X137096500Y-90995500D02*
X137096500Y-102767900D01*
X131287000Y-110597200D02*
X131267200Y-110597200D01*
X138404600Y-103459800D02*
X131267200Y-110597200D01*
X138404600Y-92227400D02*
X138404600Y-103459800D01*
X140779500Y-89852500D02*
X138404600Y-92227400D01*
D18*
X168376600Y-99210594D02*
X167537500Y-100049694D01*
X167537500Y-99866240D01*
X167480432Y-99579342D01*
X167368490Y-99309089D01*
X167205975Y-99065868D01*
X166999132Y-98859025D01*
X166824740Y-98742500D01*
X166999132Y-98625975D01*
X167205975Y-98419132D01*
X167368490Y-98175911D01*
X167480432Y-97905658D01*
X167537500Y-97618760D01*
X167537500Y-97326240D01*
X167480432Y-97039342D01*
X167368490Y-96769089D01*
X167205975Y-96525868D01*
X166999132Y-96319025D01*
X166824740Y-96202500D01*
X166999132Y-96085975D01*
X167205975Y-95879132D01*
X167368490Y-95635911D01*
X167480432Y-95365658D01*
X167537500Y-95078760D01*
X167537500Y-94786240D01*
X167480432Y-94499342D01*
X167368490Y-94229089D01*
X167205975Y-93985868D01*
X166999132Y-93779025D01*
X166824740Y-93662500D01*
X166999132Y-93545975D01*
X167205975Y-93339132D01*
X167368490Y-93095911D01*
X167480432Y-92825658D01*
X167537500Y-92538760D01*
X167537500Y-92246240D01*
X167480432Y-91959342D01*
X167368490Y-91689089D01*
X167205975Y-91445868D01*
X166999132Y-91239025D01*
X166824740Y-91122500D01*
X166999132Y-91005975D01*
X167205975Y-90799132D01*
X167368490Y-90555911D01*
X167480432Y-90285658D01*
X167537500Y-89998760D01*
X167537500Y-89706240D01*
X167480432Y-89419342D01*
X167368490Y-89149089D01*
X167205975Y-88905868D01*
X166999132Y-88699025D01*
X166824740Y-88582500D01*
X166999132Y-88465975D01*
X167205975Y-88259132D01*
X167368490Y-88015911D01*
X167480432Y-87745658D01*
X167537500Y-87458760D01*
X167537500Y-87166240D01*
X167480432Y-86879342D01*
X167368490Y-86609089D01*
X167205975Y-86365868D01*
X166999132Y-86159025D01*
X166824740Y-86042500D01*
X166999132Y-85925975D01*
X167205975Y-85719132D01*
X167368490Y-85475911D01*
X167480432Y-85205658D01*
X167537500Y-84918760D01*
X167537500Y-84626240D01*
X167480432Y-84339342D01*
X167368490Y-84069089D01*
X167205975Y-83825868D01*
X166999132Y-83619025D01*
X166824740Y-83502500D01*
X166999132Y-83385975D01*
X167205975Y-83179132D01*
X167368490Y-82935911D01*
X167480432Y-82665658D01*
X167537500Y-82378760D01*
X167537500Y-82086240D01*
X167480432Y-81799342D01*
X167368490Y-81529089D01*
X167205975Y-81285868D01*
X166999132Y-81079025D01*
X166824740Y-80962500D01*
X166999132Y-80845975D01*
X167205975Y-80639132D01*
X167368490Y-80395911D01*
X167480432Y-80125658D01*
X167537500Y-79838760D01*
X167537500Y-79546240D01*
X167480432Y-79259342D01*
X167368490Y-78989089D01*
X167205975Y-78745868D01*
X166999132Y-78539025D01*
X166824740Y-78422500D01*
X166999132Y-78305975D01*
X167205975Y-78099132D01*
X167368490Y-77855911D01*
X167480432Y-77585658D01*
X167537500Y-77298760D01*
X167537500Y-77006240D01*
X167480432Y-76719342D01*
X167368490Y-76449089D01*
X167205975Y-76205868D01*
X166999132Y-75999025D01*
X166824740Y-75882500D01*
X166999132Y-75765975D01*
X167205975Y-75559132D01*
X167368490Y-75315911D01*
X167480432Y-75045658D01*
X167537500Y-74758760D01*
X167537500Y-74466240D01*
X167480432Y-74179342D01*
X167368490Y-73909089D01*
X167205975Y-73665868D01*
X167074120Y-73534013D01*
X167146680Y-73512002D01*
X167256994Y-73453037D01*
X167353685Y-73373685D01*
X167433037Y-73276994D01*
X167492002Y-73166680D01*
X167528312Y-73046982D01*
X167540572Y-72922500D01*
X167537500Y-72358250D01*
X167378750Y-72199500D01*
X166179500Y-72199500D01*
X166179500Y-72219500D01*
X165925500Y-72219500D01*
X165925500Y-72199500D01*
X164726250Y-72199500D01*
X164567500Y-72358250D01*
X164564428Y-72922500D01*
X164576688Y-73046982D01*
X164612998Y-73166680D01*
X164671963Y-73276994D01*
X164751315Y-73373685D01*
X164848006Y-73453037D01*
X164958320Y-73512002D01*
X165030880Y-73534013D01*
X164899025Y-73665868D01*
X164736510Y-73909089D01*
X164624568Y-74179342D01*
X164567500Y-74466240D01*
X164567500Y-74758760D01*
X164624568Y-75045658D01*
X164736510Y-75315911D01*
X164899025Y-75559132D01*
X165105868Y-75765975D01*
X165280260Y-75882500D01*
X165105868Y-75999025D01*
X164899025Y-76205868D01*
X164736510Y-76449089D01*
X164624568Y-76719342D01*
X164567500Y-77006240D01*
X164567500Y-77298760D01*
X164624568Y-77585658D01*
X164736510Y-77855911D01*
X164899025Y-78099132D01*
X165105868Y-78305975D01*
X165280260Y-78422500D01*
X165105868Y-78539025D01*
X164899025Y-78745868D01*
X164736510Y-78989089D01*
X164624568Y-79259342D01*
X164567500Y-79546240D01*
X164567500Y-79838760D01*
X164624568Y-80125658D01*
X164736510Y-80395911D01*
X164899025Y-80639132D01*
X165105868Y-80845975D01*
X165280260Y-80962500D01*
X165105868Y-81079025D01*
X164899025Y-81285868D01*
X164736510Y-81529089D01*
X164624568Y-81799342D01*
X164567500Y-82086240D01*
X164567500Y-82378760D01*
X164624568Y-82665658D01*
X164736510Y-82935911D01*
X164899025Y-83179132D01*
X165105868Y-83385975D01*
X165280260Y-83502500D01*
X165105868Y-83619025D01*
X164899025Y-83825868D01*
X164736510Y-84069089D01*
X164624568Y-84339342D01*
X164567500Y-84626240D01*
X164567500Y-84918760D01*
X164624568Y-85205658D01*
X164736510Y-85475911D01*
X164899025Y-85719132D01*
X165105868Y-85925975D01*
X165280260Y-86042500D01*
X165105868Y-86159025D01*
X164899025Y-86365868D01*
X164736510Y-86609089D01*
X164624568Y-86879342D01*
X164567500Y-87166240D01*
X164567500Y-87328053D01*
X161567800Y-84328354D01*
X161567800Y-71222500D01*
X164564428Y-71222500D01*
X164567500Y-71786750D01*
X164726250Y-71945500D01*
X165925500Y-71945500D01*
X165925500Y-70746250D01*
X166179500Y-70746250D01*
X166179500Y-71945500D01*
X167378750Y-71945500D01*
X167537500Y-71786750D01*
X167540572Y-71222500D01*
X167528312Y-71098018D01*
X167492002Y-70978320D01*
X167433037Y-70868006D01*
X167353685Y-70771315D01*
X167256994Y-70691963D01*
X167146680Y-70632998D01*
X167026982Y-70596688D01*
X166902500Y-70584428D01*
X166338250Y-70587500D01*
X166179500Y-70746250D01*
X165925500Y-70746250D01*
X165766750Y-70587500D01*
X165202500Y-70584428D01*
X165078018Y-70596688D01*
X164958320Y-70632998D01*
X164848006Y-70691963D01*
X164751315Y-70771315D01*
X164671963Y-70868006D01*
X164612998Y-70978320D01*
X164576688Y-71098018D01*
X164564428Y-71222500D01*
X161567800Y-71222500D01*
X161567800Y-65252083D01*
X161779432Y-65110675D01*
X161986275Y-64903832D01*
X162107995Y-64721666D01*
X162177622Y-64838555D01*
X162372531Y-65054788D01*
X162605880Y-65228841D01*
X162868701Y-65354025D01*
X163015910Y-65398676D01*
X163245800Y-65277355D01*
X163245800Y-64084200D01*
X163225800Y-64084200D01*
X163225800Y-63830200D01*
X163245800Y-63830200D01*
X163245800Y-63810200D01*
X163499800Y-63810200D01*
X163499800Y-63830200D01*
X163519800Y-63830200D01*
X163519800Y-64084200D01*
X163499800Y-64084200D01*
X163499800Y-65277355D01*
X163729690Y-65398676D01*
X163876899Y-65354025D01*
X164139720Y-65228841D01*
X164373069Y-65054788D01*
X164448834Y-64970734D01*
X164473298Y-65051380D01*
X164532263Y-65161694D01*
X164611615Y-65258385D01*
X164708306Y-65337737D01*
X164818620Y-65396702D01*
X164938318Y-65433012D01*
X165062800Y-65445272D01*
X166762800Y-65445272D01*
X166887282Y-65433012D01*
X167006980Y-65396702D01*
X167117294Y-65337737D01*
X167213985Y-65258385D01*
X167293337Y-65161694D01*
X167352302Y-65051380D01*
X167388612Y-64931682D01*
X167400872Y-64807200D01*
X167400872Y-63107200D01*
X167388612Y-62982718D01*
X167352302Y-62863020D01*
X167293337Y-62752706D01*
X167213985Y-62656015D01*
X167117294Y-62576663D01*
X167006980Y-62517698D01*
X166887282Y-62481388D01*
X166762800Y-62469128D01*
X165605596Y-62469128D01*
X164482234Y-61345767D01*
X164456079Y-61313897D01*
X164328934Y-61209552D01*
X164183875Y-61132016D01*
X164026477Y-61084270D01*
X163903807Y-61072188D01*
X163903806Y-61072188D01*
X163862788Y-61068148D01*
X163821770Y-61072188D01*
X151112830Y-61072188D01*
X151071812Y-61068148D01*
X151030794Y-61072188D01*
X151030793Y-61072188D01*
X150908123Y-61084270D01*
X150750725Y-61132016D01*
X150605666Y-61209552D01*
X150478521Y-61313897D01*
X150452375Y-61345756D01*
X149557204Y-62240928D01*
X148874999Y-62240928D01*
X148701745Y-62257992D01*
X148535149Y-62308528D01*
X148381613Y-62390595D01*
X148247038Y-62501038D01*
X148136595Y-62635613D01*
X148054528Y-62789149D01*
X148003992Y-62955745D01*
X147986928Y-63128999D01*
X147986928Y-63811203D01*
X141213705Y-70584428D01*
X140472296Y-70584428D01*
X139138000Y-69250133D01*
X139138000Y-65045565D01*
X139249632Y-64970975D01*
X139456475Y-64764132D01*
X139573000Y-64589740D01*
X139689525Y-64764132D01*
X139896368Y-64970975D01*
X140139589Y-65133490D01*
X140409842Y-65245432D01*
X140696740Y-65302500D01*
X140989260Y-65302500D01*
X141276158Y-65245432D01*
X141546411Y-65133490D01*
X141789632Y-64970975D01*
X141996475Y-64764132D01*
X142158990Y-64520911D01*
X142270932Y-64250658D01*
X142328000Y-63963760D01*
X142328000Y-63671240D01*
X142270932Y-63384342D01*
X142158990Y-63114089D01*
X141996475Y-62870868D01*
X141789632Y-62664025D01*
X141546411Y-62501510D01*
X141276158Y-62389568D01*
X140989260Y-62332500D01*
X140696740Y-62332500D01*
X140447103Y-62382156D01*
X140138257Y-62073311D01*
X140115237Y-62045261D01*
X140003319Y-61953412D01*
X139875632Y-61885162D01*
X139737084Y-61843134D01*
X139629104Y-61832499D01*
X139592999Y-61828943D01*
X139556894Y-61832499D01*
X134629104Y-61832499D01*
X134592999Y-61828943D01*
X134556894Y-61832499D01*
X134448914Y-61843134D01*
X134310366Y-61885162D01*
X134182679Y-61953412D01*
X134070761Y-62045261D01*
X134047745Y-62073306D01*
X127877408Y-68243644D01*
X127849362Y-68266661D01*
X127757513Y-68378579D01*
X127689263Y-68506266D01*
X127659984Y-68602785D01*
X127647235Y-68644813D01*
X127633044Y-68788898D01*
X127636600Y-68825003D01*
X127636601Y-89219485D01*
X127633044Y-89255600D01*
X127647235Y-89399685D01*
X127689264Y-89538233D01*
X127757514Y-89665920D01*
X127849363Y-89777838D01*
X127877408Y-89800854D01*
X130832205Y-92755652D01*
X130750947Y-92951826D01*
X130695800Y-93229065D01*
X130695800Y-93511735D01*
X130750947Y-93788974D01*
X130859120Y-94050127D01*
X131016163Y-94285159D01*
X131216041Y-94485037D01*
X131451073Y-94642080D01*
X131712226Y-94750253D01*
X131989465Y-94805400D01*
X132272135Y-94805400D01*
X132549374Y-94750253D01*
X132810527Y-94642080D01*
X133045559Y-94485037D01*
X133245437Y-94285159D01*
X133402480Y-94050127D01*
X133510653Y-93788974D01*
X133565800Y-93511735D01*
X133565800Y-93229065D01*
X133532050Y-93059396D01*
X139294500Y-87296947D01*
X139294500Y-87458760D01*
X139344156Y-87708397D01*
X136602308Y-90450246D01*
X136574262Y-90473263D01*
X136482413Y-90585181D01*
X136414163Y-90712868D01*
X136387995Y-90799132D01*
X136372135Y-90851415D01*
X136357944Y-90995500D01*
X136361500Y-91031605D01*
X136361501Y-102463452D01*
X132691956Y-106132997D01*
X132688711Y-106122299D01*
X132574033Y-105907751D01*
X132447764Y-105753891D01*
X132496694Y-105727737D01*
X132593385Y-105648385D01*
X132672737Y-105551694D01*
X132731702Y-105441380D01*
X132768012Y-105321682D01*
X132780272Y-105197200D01*
X132777200Y-104882950D01*
X132618450Y-104724200D01*
X131394200Y-104724200D01*
X131394200Y-104744200D01*
X131140200Y-104744200D01*
X131140200Y-104724200D01*
X129915950Y-104724200D01*
X129757200Y-104882950D01*
X129754128Y-105197200D01*
X129766388Y-105321682D01*
X129802698Y-105441380D01*
X129861663Y-105551694D01*
X129941015Y-105648385D01*
X130037706Y-105727737D01*
X130086636Y-105753891D01*
X129960367Y-105907751D01*
X129845689Y-106122299D01*
X129775070Y-106355098D01*
X129751225Y-106597200D01*
X129775070Y-106839302D01*
X129791167Y-106892366D01*
X129330765Y-107352768D01*
X129298901Y-107378918D01*
X129272753Y-107410780D01*
X129194555Y-107506064D01*
X129117019Y-107651123D01*
X129069273Y-107808521D01*
X129053151Y-107972209D01*
X129057192Y-108013237D01*
X129057191Y-111690171D01*
X129053151Y-111731190D01*
X129057191Y-111772208D01*
X129069273Y-111894878D01*
X129117019Y-112052276D01*
X129194555Y-112197335D01*
X129298900Y-112324481D01*
X129330770Y-112350636D01*
X137734364Y-120754232D01*
X137760510Y-120786091D01*
X137887655Y-120890436D01*
X138032714Y-120967972D01*
X138190112Y-121015718D01*
X138312782Y-121027800D01*
X138312783Y-121027800D01*
X138353801Y-121031840D01*
X138394819Y-121027800D01*
X143291182Y-121027800D01*
X143332200Y-121031840D01*
X143373218Y-121027800D01*
X143373219Y-121027800D01*
X143495889Y-121015718D01*
X143653287Y-120967972D01*
X143798346Y-120890436D01*
X143925491Y-120786091D01*
X143951646Y-120754221D01*
X149786432Y-114919437D01*
X149818291Y-114893291D01*
X149922636Y-114766146D01*
X150000172Y-114621087D01*
X150047918Y-114463689D01*
X150060000Y-114341019D01*
X150060000Y-114341018D01*
X150064040Y-114300000D01*
X150060000Y-114258982D01*
X150060000Y-65121888D01*
X150068387Y-65117405D01*
X150202962Y-65006962D01*
X150313405Y-64872387D01*
X150315967Y-64867594D01*
X150441526Y-64992078D01*
X150644467Y-65126421D01*
X150869718Y-65218591D01*
X150907391Y-65222462D01*
X151098000Y-65097731D01*
X151098000Y-63881000D01*
X151352000Y-63881000D01*
X151352000Y-65097731D01*
X151542609Y-65222462D01*
X151580282Y-65218591D01*
X151805533Y-65126421D01*
X152008474Y-64992078D01*
X152181307Y-64820725D01*
X152317390Y-64618946D01*
X152411493Y-64394496D01*
X152460000Y-64156000D01*
X152460000Y-63881000D01*
X151352000Y-63881000D01*
X151098000Y-63881000D01*
X151078000Y-63881000D01*
X151078000Y-63627000D01*
X151098000Y-63627000D01*
X151098000Y-63607000D01*
X151352000Y-63607000D01*
X151352000Y-63627000D01*
X152460000Y-63627000D01*
X152460000Y-63352000D01*
X152411493Y-63113504D01*
X152317390Y-62889054D01*
X152218341Y-62742188D01*
X157438265Y-62742188D01*
X157346168Y-62803725D01*
X157139325Y-63010568D01*
X156976810Y-63253789D01*
X156864868Y-63524042D01*
X156807800Y-63810940D01*
X156807800Y-64103460D01*
X156864868Y-64390358D01*
X156976810Y-64660611D01*
X157139325Y-64903832D01*
X157346168Y-65110675D01*
X157557801Y-65252084D01*
X157557800Y-85249693D01*
X157554244Y-85285798D01*
X157557800Y-85321902D01*
X157568435Y-85429882D01*
X157610463Y-85568430D01*
X157678713Y-85696117D01*
X157770562Y-85808035D01*
X157798608Y-85831052D01*
X164582693Y-92615138D01*
X164624568Y-92825658D01*
X164736510Y-93095911D01*
X164899025Y-93339132D01*
X165105868Y-93545975D01*
X165280260Y-93662500D01*
X165105868Y-93779025D01*
X164899025Y-93985868D01*
X164736510Y-94229089D01*
X164624568Y-94499342D01*
X164567500Y-94786240D01*
X164567500Y-95078760D01*
X164624568Y-95365658D01*
X164736510Y-95635911D01*
X164899025Y-95879132D01*
X165105868Y-96085975D01*
X165280260Y-96202500D01*
X165105868Y-96319025D01*
X164899025Y-96525868D01*
X164736510Y-96769089D01*
X164624568Y-97039342D01*
X164567500Y-97326240D01*
X164567500Y-97618760D01*
X164624568Y-97905658D01*
X164736510Y-98175911D01*
X164899025Y-98419132D01*
X165105868Y-98625975D01*
X165280260Y-98742500D01*
X165105868Y-98859025D01*
X164899025Y-99065868D01*
X164736510Y-99309089D01*
X164624568Y-99579342D01*
X164567500Y-99866240D01*
X164567500Y-100158760D01*
X164624568Y-100445658D01*
X164736510Y-100715911D01*
X164899025Y-100959132D01*
X165105868Y-101165975D01*
X165280260Y-101282500D01*
X165105868Y-101399025D01*
X164899025Y-101605868D01*
X164736510Y-101849089D01*
X164624568Y-102119342D01*
X164567500Y-102406240D01*
X164567500Y-102698760D01*
X164620747Y-102966447D01*
X145946594Y-121640600D01*
X135485406Y-121640600D01*
X125984000Y-112139194D01*
X125984000Y-103997200D01*
X129754128Y-103997200D01*
X129757200Y-104311450D01*
X129915950Y-104470200D01*
X131140200Y-104470200D01*
X131140200Y-103520950D01*
X131394200Y-103520950D01*
X131394200Y-104470200D01*
X132618450Y-104470200D01*
X132777200Y-104311450D01*
X132780272Y-103997200D01*
X132768012Y-103872718D01*
X132731702Y-103753020D01*
X132672737Y-103642706D01*
X132593385Y-103546015D01*
X132496694Y-103466663D01*
X132386380Y-103407698D01*
X132266682Y-103371388D01*
X132142200Y-103359128D01*
X131552950Y-103362200D01*
X131394200Y-103520950D01*
X131140200Y-103520950D01*
X130981450Y-103362200D01*
X130392200Y-103359128D01*
X130267718Y-103371388D01*
X130148020Y-103407698D01*
X130037706Y-103466663D01*
X129941015Y-103546015D01*
X129861663Y-103642706D01*
X129802698Y-103753020D01*
X129766388Y-103872718D01*
X129754128Y-103997200D01*
X125984000Y-103997200D01*
X125984000Y-99363102D01*
X131317703Y-99363102D01*
X131389286Y-99607071D01*
X131644796Y-99727971D01*
X131918984Y-99796700D01*
X132201312Y-99810617D01*
X132480930Y-99769187D01*
X132747092Y-99674003D01*
X132872314Y-99607071D01*
X132943897Y-99363102D01*
X132130800Y-98550005D01*
X131317703Y-99363102D01*
X125984000Y-99363102D01*
X125984000Y-98440912D01*
X130690583Y-98440912D01*
X130732013Y-98720530D01*
X130827197Y-98986692D01*
X130894129Y-99111914D01*
X131138098Y-99183497D01*
X131951195Y-98370400D01*
X132310405Y-98370400D01*
X133123502Y-99183497D01*
X133367471Y-99111914D01*
X133488371Y-98856404D01*
X133557100Y-98582216D01*
X133571017Y-98299888D01*
X133529587Y-98020270D01*
X133434403Y-97754108D01*
X133367471Y-97628886D01*
X133123502Y-97557303D01*
X132310405Y-98370400D01*
X131951195Y-98370400D01*
X131138098Y-97557303D01*
X130894129Y-97628886D01*
X130773229Y-97884396D01*
X130704500Y-98158584D01*
X130690583Y-98440912D01*
X125984000Y-98440912D01*
X125984000Y-97377698D01*
X131317703Y-97377698D01*
X132130800Y-98190795D01*
X132943897Y-97377698D01*
X132872314Y-97133729D01*
X132616804Y-97012829D01*
X132342616Y-96944100D01*
X132060288Y-96930183D01*
X131780670Y-96971613D01*
X131514508Y-97066797D01*
X131389286Y-97133729D01*
X131317703Y-97377698D01*
X125984000Y-97377698D01*
X125984000Y-68378606D01*
X134164606Y-60198000D01*
X168376600Y-60198000D01*
X168376600Y-99210594D01*
G04 #@! TA.AperFunction,Conductor*
D19*
G36*
X168376600Y-99210594D02*
G01*
X167537500Y-100049694D01*
X167537500Y-99866240D01*
X167480432Y-99579342D01*
X167368490Y-99309089D01*
X167205975Y-99065868D01*
X166999132Y-98859025D01*
X166824740Y-98742500D01*
X166999132Y-98625975D01*
X167205975Y-98419132D01*
X167368490Y-98175911D01*
X167480432Y-97905658D01*
X167537500Y-97618760D01*
X167537500Y-97326240D01*
X167480432Y-97039342D01*
X167368490Y-96769089D01*
X167205975Y-96525868D01*
X166999132Y-96319025D01*
X166824740Y-96202500D01*
X166999132Y-96085975D01*
X167205975Y-95879132D01*
X167368490Y-95635911D01*
X167480432Y-95365658D01*
X167537500Y-95078760D01*
X167537500Y-94786240D01*
X167480432Y-94499342D01*
X167368490Y-94229089D01*
X167205975Y-93985868D01*
X166999132Y-93779025D01*
X166824740Y-93662500D01*
X166999132Y-93545975D01*
X167205975Y-93339132D01*
X167368490Y-93095911D01*
X167480432Y-92825658D01*
X167537500Y-92538760D01*
X167537500Y-92246240D01*
X167480432Y-91959342D01*
X167368490Y-91689089D01*
X167205975Y-91445868D01*
X166999132Y-91239025D01*
X166824740Y-91122500D01*
X166999132Y-91005975D01*
X167205975Y-90799132D01*
X167368490Y-90555911D01*
X167480432Y-90285658D01*
X167537500Y-89998760D01*
X167537500Y-89706240D01*
X167480432Y-89419342D01*
X167368490Y-89149089D01*
X167205975Y-88905868D01*
X166999132Y-88699025D01*
X166824740Y-88582500D01*
X166999132Y-88465975D01*
X167205975Y-88259132D01*
X167368490Y-88015911D01*
X167480432Y-87745658D01*
X167537500Y-87458760D01*
X167537500Y-87166240D01*
X167480432Y-86879342D01*
X167368490Y-86609089D01*
X167205975Y-86365868D01*
X166999132Y-86159025D01*
X166824740Y-86042500D01*
X166999132Y-85925975D01*
X167205975Y-85719132D01*
X167368490Y-85475911D01*
X167480432Y-85205658D01*
X167537500Y-84918760D01*
X167537500Y-84626240D01*
X167480432Y-84339342D01*
X167368490Y-84069089D01*
X167205975Y-83825868D01*
X166999132Y-83619025D01*
X166824740Y-83502500D01*
X166999132Y-83385975D01*
X167205975Y-83179132D01*
X167368490Y-82935911D01*
X167480432Y-82665658D01*
X167537500Y-82378760D01*
X167537500Y-82086240D01*
X167480432Y-81799342D01*
X167368490Y-81529089D01*
X167205975Y-81285868D01*
X166999132Y-81079025D01*
X166824740Y-80962500D01*
X166999132Y-80845975D01*
X167205975Y-80639132D01*
X167368490Y-80395911D01*
X167480432Y-80125658D01*
X167537500Y-79838760D01*
X167537500Y-79546240D01*
X167480432Y-79259342D01*
X167368490Y-78989089D01*
X167205975Y-78745868D01*
X166999132Y-78539025D01*
X166824740Y-78422500D01*
X166999132Y-78305975D01*
X167205975Y-78099132D01*
X167368490Y-77855911D01*
X167480432Y-77585658D01*
X167537500Y-77298760D01*
X167537500Y-77006240D01*
X167480432Y-76719342D01*
X167368490Y-76449089D01*
X167205975Y-76205868D01*
X166999132Y-75999025D01*
X166824740Y-75882500D01*
X166999132Y-75765975D01*
X167205975Y-75559132D01*
X167368490Y-75315911D01*
X167480432Y-75045658D01*
X167537500Y-74758760D01*
X167537500Y-74466240D01*
X167480432Y-74179342D01*
X167368490Y-73909089D01*
X167205975Y-73665868D01*
X167074120Y-73534013D01*
X167146680Y-73512002D01*
X167256994Y-73453037D01*
X167353685Y-73373685D01*
X167433037Y-73276994D01*
X167492002Y-73166680D01*
X167528312Y-73046982D01*
X167540572Y-72922500D01*
X167537500Y-72358250D01*
X167378750Y-72199500D01*
X166179500Y-72199500D01*
X166179500Y-72219500D01*
X165925500Y-72219500D01*
X165925500Y-72199500D01*
X164726250Y-72199500D01*
X164567500Y-72358250D01*
X164564428Y-72922500D01*
X164576688Y-73046982D01*
X164612998Y-73166680D01*
X164671963Y-73276994D01*
X164751315Y-73373685D01*
X164848006Y-73453037D01*
X164958320Y-73512002D01*
X165030880Y-73534013D01*
X164899025Y-73665868D01*
X164736510Y-73909089D01*
X164624568Y-74179342D01*
X164567500Y-74466240D01*
X164567500Y-74758760D01*
X164624568Y-75045658D01*
X164736510Y-75315911D01*
X164899025Y-75559132D01*
X165105868Y-75765975D01*
X165280260Y-75882500D01*
X165105868Y-75999025D01*
X164899025Y-76205868D01*
X164736510Y-76449089D01*
X164624568Y-76719342D01*
X164567500Y-77006240D01*
X164567500Y-77298760D01*
X164624568Y-77585658D01*
X164736510Y-77855911D01*
X164899025Y-78099132D01*
X165105868Y-78305975D01*
X165280260Y-78422500D01*
X165105868Y-78539025D01*
X164899025Y-78745868D01*
X164736510Y-78989089D01*
X164624568Y-79259342D01*
X164567500Y-79546240D01*
X164567500Y-79838760D01*
X164624568Y-80125658D01*
X164736510Y-80395911D01*
X164899025Y-80639132D01*
X165105868Y-80845975D01*
X165280260Y-80962500D01*
X165105868Y-81079025D01*
X164899025Y-81285868D01*
X164736510Y-81529089D01*
X164624568Y-81799342D01*
X164567500Y-82086240D01*
X164567500Y-82378760D01*
X164624568Y-82665658D01*
X164736510Y-82935911D01*
X164899025Y-83179132D01*
X165105868Y-83385975D01*
X165280260Y-83502500D01*
X165105868Y-83619025D01*
X164899025Y-83825868D01*
X164736510Y-84069089D01*
X164624568Y-84339342D01*
X164567500Y-84626240D01*
X164567500Y-84918760D01*
X164624568Y-85205658D01*
X164736510Y-85475911D01*
X164899025Y-85719132D01*
X165105868Y-85925975D01*
X165280260Y-86042500D01*
X165105868Y-86159025D01*
X164899025Y-86365868D01*
X164736510Y-86609089D01*
X164624568Y-86879342D01*
X164567500Y-87166240D01*
X164567500Y-87328053D01*
X161567800Y-84328354D01*
X161567800Y-71222500D01*
X164564428Y-71222500D01*
X164567500Y-71786750D01*
X164726250Y-71945500D01*
X165925500Y-71945500D01*
X165925500Y-70746250D01*
X166179500Y-70746250D01*
X166179500Y-71945500D01*
X167378750Y-71945500D01*
X167537500Y-71786750D01*
X167540572Y-71222500D01*
X167528312Y-71098018D01*
X167492002Y-70978320D01*
X167433037Y-70868006D01*
X167353685Y-70771315D01*
X167256994Y-70691963D01*
X167146680Y-70632998D01*
X167026982Y-70596688D01*
X166902500Y-70584428D01*
X166338250Y-70587500D01*
X166179500Y-70746250D01*
X165925500Y-70746250D01*
X165766750Y-70587500D01*
X165202500Y-70584428D01*
X165078018Y-70596688D01*
X164958320Y-70632998D01*
X164848006Y-70691963D01*
X164751315Y-70771315D01*
X164671963Y-70868006D01*
X164612998Y-70978320D01*
X164576688Y-71098018D01*
X164564428Y-71222500D01*
X161567800Y-71222500D01*
X161567800Y-65252083D01*
X161779432Y-65110675D01*
X161986275Y-64903832D01*
X162107995Y-64721666D01*
X162177622Y-64838555D01*
X162372531Y-65054788D01*
X162605880Y-65228841D01*
X162868701Y-65354025D01*
X163015910Y-65398676D01*
X163245800Y-65277355D01*
X163245800Y-64084200D01*
X163225800Y-64084200D01*
X163225800Y-63830200D01*
X163245800Y-63830200D01*
X163245800Y-63810200D01*
X163499800Y-63810200D01*
X163499800Y-63830200D01*
X163519800Y-63830200D01*
X163519800Y-64084200D01*
X163499800Y-64084200D01*
X163499800Y-65277355D01*
X163729690Y-65398676D01*
X163876899Y-65354025D01*
X164139720Y-65228841D01*
X164373069Y-65054788D01*
X164448834Y-64970734D01*
X164473298Y-65051380D01*
X164532263Y-65161694D01*
X164611615Y-65258385D01*
X164708306Y-65337737D01*
X164818620Y-65396702D01*
X164938318Y-65433012D01*
X165062800Y-65445272D01*
X166762800Y-65445272D01*
X166887282Y-65433012D01*
X167006980Y-65396702D01*
X167117294Y-65337737D01*
X167213985Y-65258385D01*
X167293337Y-65161694D01*
X167352302Y-65051380D01*
X167388612Y-64931682D01*
X167400872Y-64807200D01*
X167400872Y-63107200D01*
X167388612Y-62982718D01*
X167352302Y-62863020D01*
X167293337Y-62752706D01*
X167213985Y-62656015D01*
X167117294Y-62576663D01*
X167006980Y-62517698D01*
X166887282Y-62481388D01*
X166762800Y-62469128D01*
X165605596Y-62469128D01*
X164482234Y-61345767D01*
X164456079Y-61313897D01*
X164328934Y-61209552D01*
X164183875Y-61132016D01*
X164026477Y-61084270D01*
X163903807Y-61072188D01*
X163903806Y-61072188D01*
X163862788Y-61068148D01*
X163821770Y-61072188D01*
X151112830Y-61072188D01*
X151071812Y-61068148D01*
X151030794Y-61072188D01*
X151030793Y-61072188D01*
X150908123Y-61084270D01*
X150750725Y-61132016D01*
X150605666Y-61209552D01*
X150478521Y-61313897D01*
X150452375Y-61345756D01*
X149557204Y-62240928D01*
X148874999Y-62240928D01*
X148701745Y-62257992D01*
X148535149Y-62308528D01*
X148381613Y-62390595D01*
X148247038Y-62501038D01*
X148136595Y-62635613D01*
X148054528Y-62789149D01*
X148003992Y-62955745D01*
X147986928Y-63128999D01*
X147986928Y-63811203D01*
X141213705Y-70584428D01*
X140472296Y-70584428D01*
X139138000Y-69250133D01*
X139138000Y-65045565D01*
X139249632Y-64970975D01*
X139456475Y-64764132D01*
X139573000Y-64589740D01*
X139689525Y-64764132D01*
X139896368Y-64970975D01*
X140139589Y-65133490D01*
X140409842Y-65245432D01*
X140696740Y-65302500D01*
X140989260Y-65302500D01*
X141276158Y-65245432D01*
X141546411Y-65133490D01*
X141789632Y-64970975D01*
X141996475Y-64764132D01*
X142158990Y-64520911D01*
X142270932Y-64250658D01*
X142328000Y-63963760D01*
X142328000Y-63671240D01*
X142270932Y-63384342D01*
X142158990Y-63114089D01*
X141996475Y-62870868D01*
X141789632Y-62664025D01*
X141546411Y-62501510D01*
X141276158Y-62389568D01*
X140989260Y-62332500D01*
X140696740Y-62332500D01*
X140447103Y-62382156D01*
X140138257Y-62073311D01*
X140115237Y-62045261D01*
X140003319Y-61953412D01*
X139875632Y-61885162D01*
X139737084Y-61843134D01*
X139629104Y-61832499D01*
X139592999Y-61828943D01*
X139556894Y-61832499D01*
X134629104Y-61832499D01*
X134592999Y-61828943D01*
X134556894Y-61832499D01*
X134448914Y-61843134D01*
X134310366Y-61885162D01*
X134182679Y-61953412D01*
X134070761Y-62045261D01*
X134047745Y-62073306D01*
X127877408Y-68243644D01*
X127849362Y-68266661D01*
X127757513Y-68378579D01*
X127689263Y-68506266D01*
X127659984Y-68602785D01*
X127647235Y-68644813D01*
X127633044Y-68788898D01*
X127636600Y-68825003D01*
X127636601Y-89219485D01*
X127633044Y-89255600D01*
X127647235Y-89399685D01*
X127689264Y-89538233D01*
X127757514Y-89665920D01*
X127849363Y-89777838D01*
X127877408Y-89800854D01*
X130832205Y-92755652D01*
X130750947Y-92951826D01*
X130695800Y-93229065D01*
X130695800Y-93511735D01*
X130750947Y-93788974D01*
X130859120Y-94050127D01*
X131016163Y-94285159D01*
X131216041Y-94485037D01*
X131451073Y-94642080D01*
X131712226Y-94750253D01*
X131989465Y-94805400D01*
X132272135Y-94805400D01*
X132549374Y-94750253D01*
X132810527Y-94642080D01*
X133045559Y-94485037D01*
X133245437Y-94285159D01*
X133402480Y-94050127D01*
X133510653Y-93788974D01*
X133565800Y-93511735D01*
X133565800Y-93229065D01*
X133532050Y-93059396D01*
X139294500Y-87296947D01*
X139294500Y-87458760D01*
X139344156Y-87708397D01*
X136602308Y-90450246D01*
X136574262Y-90473263D01*
X136482413Y-90585181D01*
X136414163Y-90712868D01*
X136387995Y-90799132D01*
X136372135Y-90851415D01*
X136357944Y-90995500D01*
X136361500Y-91031605D01*
X136361501Y-102463452D01*
X132691956Y-106132997D01*
X132688711Y-106122299D01*
X132574033Y-105907751D01*
X132447764Y-105753891D01*
X132496694Y-105727737D01*
X132593385Y-105648385D01*
X132672737Y-105551694D01*
X132731702Y-105441380D01*
X132768012Y-105321682D01*
X132780272Y-105197200D01*
X132777200Y-104882950D01*
X132618450Y-104724200D01*
X131394200Y-104724200D01*
X131394200Y-104744200D01*
X131140200Y-104744200D01*
X131140200Y-104724200D01*
X129915950Y-104724200D01*
X129757200Y-104882950D01*
X129754128Y-105197200D01*
X129766388Y-105321682D01*
X129802698Y-105441380D01*
X129861663Y-105551694D01*
X129941015Y-105648385D01*
X130037706Y-105727737D01*
X130086636Y-105753891D01*
X129960367Y-105907751D01*
X129845689Y-106122299D01*
X129775070Y-106355098D01*
X129751225Y-106597200D01*
X129775070Y-106839302D01*
X129791167Y-106892366D01*
X129330765Y-107352768D01*
X129298901Y-107378918D01*
X129272753Y-107410780D01*
X129194555Y-107506064D01*
X129117019Y-107651123D01*
X129069273Y-107808521D01*
X129053151Y-107972209D01*
X129057192Y-108013237D01*
X129057191Y-111690171D01*
X129053151Y-111731190D01*
X129057191Y-111772208D01*
X129069273Y-111894878D01*
X129117019Y-112052276D01*
X129194555Y-112197335D01*
X129298900Y-112324481D01*
X129330770Y-112350636D01*
X137734364Y-120754232D01*
X137760510Y-120786091D01*
X137887655Y-120890436D01*
X138032714Y-120967972D01*
X138190112Y-121015718D01*
X138312782Y-121027800D01*
X138312783Y-121027800D01*
X138353801Y-121031840D01*
X138394819Y-121027800D01*
X143291182Y-121027800D01*
X143332200Y-121031840D01*
X143373218Y-121027800D01*
X143373219Y-121027800D01*
X143495889Y-121015718D01*
X143653287Y-120967972D01*
X143798346Y-120890436D01*
X143925491Y-120786091D01*
X143951646Y-120754221D01*
X149786432Y-114919437D01*
X149818291Y-114893291D01*
X149922636Y-114766146D01*
X150000172Y-114621087D01*
X150047918Y-114463689D01*
X150060000Y-114341019D01*
X150060000Y-114341018D01*
X150064040Y-114300000D01*
X150060000Y-114258982D01*
X150060000Y-65121888D01*
X150068387Y-65117405D01*
X150202962Y-65006962D01*
X150313405Y-64872387D01*
X150315967Y-64867594D01*
X150441526Y-64992078D01*
X150644467Y-65126421D01*
X150869718Y-65218591D01*
X150907391Y-65222462D01*
X151098000Y-65097731D01*
X151098000Y-63881000D01*
X151352000Y-63881000D01*
X151352000Y-65097731D01*
X151542609Y-65222462D01*
X151580282Y-65218591D01*
X151805533Y-65126421D01*
X152008474Y-64992078D01*
X152181307Y-64820725D01*
X152317390Y-64618946D01*
X152411493Y-64394496D01*
X152460000Y-64156000D01*
X152460000Y-63881000D01*
X151352000Y-63881000D01*
X151098000Y-63881000D01*
X151078000Y-63881000D01*
X151078000Y-63627000D01*
X151098000Y-63627000D01*
X151098000Y-63607000D01*
X151352000Y-63607000D01*
X151352000Y-63627000D01*
X152460000Y-63627000D01*
X152460000Y-63352000D01*
X152411493Y-63113504D01*
X152317390Y-62889054D01*
X152218341Y-62742188D01*
X157438265Y-62742188D01*
X157346168Y-62803725D01*
X157139325Y-63010568D01*
X156976810Y-63253789D01*
X156864868Y-63524042D01*
X156807800Y-63810940D01*
X156807800Y-64103460D01*
X156864868Y-64390358D01*
X156976810Y-64660611D01*
X157139325Y-64903832D01*
X157346168Y-65110675D01*
X157557801Y-65252084D01*
X157557800Y-85249693D01*
X157554244Y-85285798D01*
X157557800Y-85321902D01*
X157568435Y-85429882D01*
X157610463Y-85568430D01*
X157678713Y-85696117D01*
X157770562Y-85808035D01*
X157798608Y-85831052D01*
X164582693Y-92615138D01*
X164624568Y-92825658D01*
X164736510Y-93095911D01*
X164899025Y-93339132D01*
X165105868Y-93545975D01*
X165280260Y-93662500D01*
X165105868Y-93779025D01*
X164899025Y-93985868D01*
X164736510Y-94229089D01*
X164624568Y-94499342D01*
X164567500Y-94786240D01*
X164567500Y-95078760D01*
X164624568Y-95365658D01*
X164736510Y-95635911D01*
X164899025Y-95879132D01*
X165105868Y-96085975D01*
X165280260Y-96202500D01*
X165105868Y-96319025D01*
X164899025Y-96525868D01*
X164736510Y-96769089D01*
X164624568Y-97039342D01*
X164567500Y-97326240D01*
X164567500Y-97618760D01*
X164624568Y-97905658D01*
X164736510Y-98175911D01*
X164899025Y-98419132D01*
X165105868Y-98625975D01*
X165280260Y-98742500D01*
X165105868Y-98859025D01*
X164899025Y-99065868D01*
X164736510Y-99309089D01*
X164624568Y-99579342D01*
X164567500Y-99866240D01*
X164567500Y-100158760D01*
X164624568Y-100445658D01*
X164736510Y-100715911D01*
X164899025Y-100959132D01*
X165105868Y-101165975D01*
X165280260Y-101282500D01*
X165105868Y-101399025D01*
X164899025Y-101605868D01*
X164736510Y-101849089D01*
X164624568Y-102119342D01*
X164567500Y-102406240D01*
X164567500Y-102698760D01*
X164620747Y-102966447D01*
X145946594Y-121640600D01*
X135485406Y-121640600D01*
X125984000Y-112139194D01*
X125984000Y-103997200D01*
X129754128Y-103997200D01*
X129757200Y-104311450D01*
X129915950Y-104470200D01*
X131140200Y-104470200D01*
X131140200Y-103520950D01*
X131394200Y-103520950D01*
X131394200Y-104470200D01*
X132618450Y-104470200D01*
X132777200Y-104311450D01*
X132780272Y-103997200D01*
X132768012Y-103872718D01*
X132731702Y-103753020D01*
X132672737Y-103642706D01*
X132593385Y-103546015D01*
X132496694Y-103466663D01*
X132386380Y-103407698D01*
X132266682Y-103371388D01*
X132142200Y-103359128D01*
X131552950Y-103362200D01*
X131394200Y-103520950D01*
X131140200Y-103520950D01*
X130981450Y-103362200D01*
X130392200Y-103359128D01*
X130267718Y-103371388D01*
X130148020Y-103407698D01*
X130037706Y-103466663D01*
X129941015Y-103546015D01*
X129861663Y-103642706D01*
X129802698Y-103753020D01*
X129766388Y-103872718D01*
X129754128Y-103997200D01*
X125984000Y-103997200D01*
X125984000Y-99363102D01*
X131317703Y-99363102D01*
X131389286Y-99607071D01*
X131644796Y-99727971D01*
X131918984Y-99796700D01*
X132201312Y-99810617D01*
X132480930Y-99769187D01*
X132747092Y-99674003D01*
X132872314Y-99607071D01*
X132943897Y-99363102D01*
X132130800Y-98550005D01*
X131317703Y-99363102D01*
X125984000Y-99363102D01*
X125984000Y-98440912D01*
X130690583Y-98440912D01*
X130732013Y-98720530D01*
X130827197Y-98986692D01*
X130894129Y-99111914D01*
X131138098Y-99183497D01*
X131951195Y-98370400D01*
X132310405Y-98370400D01*
X133123502Y-99183497D01*
X133367471Y-99111914D01*
X133488371Y-98856404D01*
X133557100Y-98582216D01*
X133571017Y-98299888D01*
X133529587Y-98020270D01*
X133434403Y-97754108D01*
X133367471Y-97628886D01*
X133123502Y-97557303D01*
X132310405Y-98370400D01*
X131951195Y-98370400D01*
X131138098Y-97557303D01*
X130894129Y-97628886D01*
X130773229Y-97884396D01*
X130704500Y-98158584D01*
X130690583Y-98440912D01*
X125984000Y-98440912D01*
X125984000Y-97377698D01*
X131317703Y-97377698D01*
X132130800Y-98190795D01*
X132943897Y-97377698D01*
X132872314Y-97133729D01*
X132616804Y-97012829D01*
X132342616Y-96944100D01*
X132060288Y-96930183D01*
X131780670Y-96971613D01*
X131514508Y-97066797D01*
X131389286Y-97133729D01*
X131317703Y-97377698D01*
X125984000Y-97377698D01*
X125984000Y-68378606D01*
X134164606Y-60198000D01*
X168376600Y-60198000D01*
X168376600Y-99210594D01*
G37*
G04 #@! TD.AperFunction*
D18*
X135890000Y-63690500D02*
X135910000Y-63690500D01*
X135910000Y-63944500D01*
X135890000Y-63944500D01*
X135890000Y-65143750D01*
X136048750Y-65302500D01*
X136613000Y-65305572D01*
X136737482Y-65293312D01*
X136857180Y-65257002D01*
X136967494Y-65198037D01*
X137064185Y-65118685D01*
X137143537Y-65021994D01*
X137202502Y-64911680D01*
X137224513Y-64839120D01*
X137356368Y-64970975D01*
X137468000Y-65045565D01*
X137468001Y-69554972D01*
X137463960Y-69596000D01*
X137480082Y-69759688D01*
X137527828Y-69917086D01*
X137527829Y-69917087D01*
X137605365Y-70062146D01*
X137709710Y-70189291D01*
X137741574Y-70215441D01*
X139291428Y-71765296D01*
X139291428Y-72379704D01*
X132577705Y-79093428D01*
X131311499Y-79093428D01*
X131311499Y-77449147D01*
X131777424Y-76983222D01*
X131989465Y-77025400D01*
X132272135Y-77025400D01*
X132549374Y-76970253D01*
X132810527Y-76862080D01*
X133045559Y-76705037D01*
X133245437Y-76505159D01*
X133402480Y-76270127D01*
X133510653Y-76008974D01*
X133565800Y-75731735D01*
X133565800Y-75449065D01*
X133510653Y-75171826D01*
X133402480Y-74910673D01*
X133245437Y-74675641D01*
X133045559Y-74475763D01*
X132810527Y-74318720D01*
X132549374Y-74210547D01*
X132272135Y-74155400D01*
X131989465Y-74155400D01*
X131712226Y-74210547D01*
X131451073Y-74318720D01*
X131216041Y-74475763D01*
X131016163Y-74675641D01*
X130859120Y-74910673D01*
X130750947Y-75171826D01*
X130695800Y-75449065D01*
X130695800Y-75731735D01*
X130737978Y-75943776D01*
X130082307Y-76599447D01*
X130054261Y-76622464D01*
X129962412Y-76734382D01*
X129894162Y-76862069D01*
X129894159Y-76862080D01*
X129852134Y-77000616D01*
X129837943Y-77144701D01*
X129841499Y-77180806D01*
X129841500Y-81835384D01*
X129837943Y-81871499D01*
X129852134Y-82015584D01*
X129873568Y-82086240D01*
X129894163Y-82154132D01*
X129962413Y-82281819D01*
X130054262Y-82393737D01*
X130082307Y-82416753D01*
X130391156Y-82725603D01*
X130341500Y-82975240D01*
X130341500Y-83267760D01*
X130398568Y-83554658D01*
X130510510Y-83824911D01*
X130673025Y-84068132D01*
X130879868Y-84274975D01*
X131062034Y-84396695D01*
X130945145Y-84466322D01*
X130728912Y-84661231D01*
X130554859Y-84894580D01*
X130429675Y-85157401D01*
X130385024Y-85304610D01*
X130506345Y-85534500D01*
X131699500Y-85534500D01*
X131699500Y-85514500D01*
X131953500Y-85514500D01*
X131953500Y-85534500D01*
X133146655Y-85534500D01*
X133267976Y-85304610D01*
X133223325Y-85157401D01*
X133098141Y-84894580D01*
X132924088Y-84661231D01*
X132707855Y-84466322D01*
X132590966Y-84396695D01*
X132773132Y-84274975D01*
X132979975Y-84068132D01*
X133121383Y-83856500D01*
X139605557Y-83856500D01*
X139463510Y-84069089D01*
X139351568Y-84339342D01*
X139294500Y-84626240D01*
X139294500Y-84918760D01*
X139344156Y-85168397D01*
X132526547Y-91986006D01*
X132272135Y-91935400D01*
X132090847Y-91935400D01*
X129106600Y-88951154D01*
X129106600Y-86018390D01*
X130385024Y-86018390D01*
X130429675Y-86165599D01*
X130554859Y-86428420D01*
X130728912Y-86661769D01*
X130945145Y-86856678D01*
X131195248Y-87005657D01*
X131469609Y-87102981D01*
X131699500Y-86982314D01*
X131699500Y-85788500D01*
X131953500Y-85788500D01*
X131953500Y-86982314D01*
X132183391Y-87102981D01*
X132457752Y-87005657D01*
X132707855Y-86856678D01*
X132924088Y-86661769D01*
X133098141Y-86428420D01*
X133223325Y-86165599D01*
X133267976Y-86018390D01*
X133146655Y-85788500D01*
X131953500Y-85788500D01*
X131699500Y-85788500D01*
X130506345Y-85788500D01*
X130385024Y-86018390D01*
X129106600Y-86018390D01*
X129106600Y-71583102D01*
X131317703Y-71583102D01*
X131389286Y-71827071D01*
X131644796Y-71947971D01*
X131918984Y-72016700D01*
X132201312Y-72030617D01*
X132480930Y-71989187D01*
X132747092Y-71894003D01*
X132872314Y-71827071D01*
X132943897Y-71583102D01*
X132130800Y-70770005D01*
X131317703Y-71583102D01*
X129106600Y-71583102D01*
X129106600Y-70660912D01*
X130690583Y-70660912D01*
X130732013Y-70940530D01*
X130827197Y-71206692D01*
X130894129Y-71331914D01*
X131138098Y-71403497D01*
X131951195Y-70590400D01*
X132310405Y-70590400D01*
X133123502Y-71403497D01*
X133367471Y-71331914D01*
X133488371Y-71076404D01*
X133557100Y-70802216D01*
X133571017Y-70519888D01*
X133529587Y-70240270D01*
X133434403Y-69974108D01*
X133367471Y-69848886D01*
X133123502Y-69777303D01*
X132310405Y-70590400D01*
X131951195Y-70590400D01*
X131138098Y-69777303D01*
X130894129Y-69848886D01*
X130773229Y-70104396D01*
X130704500Y-70378584D01*
X130690583Y-70660912D01*
X129106600Y-70660912D01*
X129106600Y-69597698D01*
X131317703Y-69597698D01*
X132130800Y-70410795D01*
X132943897Y-69597698D01*
X132872314Y-69353729D01*
X132616804Y-69232829D01*
X132342616Y-69164100D01*
X132060288Y-69150183D01*
X131780670Y-69191613D01*
X131514508Y-69286797D01*
X131389286Y-69353729D01*
X131317703Y-69597698D01*
X129106600Y-69597698D01*
X129106600Y-69093344D01*
X134278000Y-63921945D01*
X134278000Y-63944502D01*
X134436748Y-63944502D01*
X134278000Y-64103250D01*
X134274928Y-64667500D01*
X134287188Y-64791982D01*
X134323498Y-64911680D01*
X134382463Y-65021994D01*
X134461815Y-65118685D01*
X134558506Y-65198037D01*
X134668820Y-65257002D01*
X134788518Y-65293312D01*
X134913000Y-65305572D01*
X135477250Y-65302500D01*
X135636000Y-65143750D01*
X135636000Y-63944500D01*
X135616000Y-63944500D01*
X135616000Y-63690500D01*
X135636000Y-63690500D01*
X135636000Y-63670500D01*
X135890000Y-63670500D01*
X135890000Y-63690500D01*
G04 #@! TA.AperFunction,Conductor*
D19*
G36*
X135890000Y-63690500D02*
G01*
X135910000Y-63690500D01*
X135910000Y-63944500D01*
X135890000Y-63944500D01*
X135890000Y-65143750D01*
X136048750Y-65302500D01*
X136613000Y-65305572D01*
X136737482Y-65293312D01*
X136857180Y-65257002D01*
X136967494Y-65198037D01*
X137064185Y-65118685D01*
X137143537Y-65021994D01*
X137202502Y-64911680D01*
X137224513Y-64839120D01*
X137356368Y-64970975D01*
X137468000Y-65045565D01*
X137468001Y-69554972D01*
X137463960Y-69596000D01*
X137480082Y-69759688D01*
X137527828Y-69917086D01*
X137527829Y-69917087D01*
X137605365Y-70062146D01*
X137709710Y-70189291D01*
X137741574Y-70215441D01*
X139291428Y-71765296D01*
X139291428Y-72379704D01*
X132577705Y-79093428D01*
X131311499Y-79093428D01*
X131311499Y-77449147D01*
X131777424Y-76983222D01*
X131989465Y-77025400D01*
X132272135Y-77025400D01*
X132549374Y-76970253D01*
X132810527Y-76862080D01*
X133045559Y-76705037D01*
X133245437Y-76505159D01*
X133402480Y-76270127D01*
X133510653Y-76008974D01*
X133565800Y-75731735D01*
X133565800Y-75449065D01*
X133510653Y-75171826D01*
X133402480Y-74910673D01*
X133245437Y-74675641D01*
X133045559Y-74475763D01*
X132810527Y-74318720D01*
X132549374Y-74210547D01*
X132272135Y-74155400D01*
X131989465Y-74155400D01*
X131712226Y-74210547D01*
X131451073Y-74318720D01*
X131216041Y-74475763D01*
X131016163Y-74675641D01*
X130859120Y-74910673D01*
X130750947Y-75171826D01*
X130695800Y-75449065D01*
X130695800Y-75731735D01*
X130737978Y-75943776D01*
X130082307Y-76599447D01*
X130054261Y-76622464D01*
X129962412Y-76734382D01*
X129894162Y-76862069D01*
X129894159Y-76862080D01*
X129852134Y-77000616D01*
X129837943Y-77144701D01*
X129841499Y-77180806D01*
X129841500Y-81835384D01*
X129837943Y-81871499D01*
X129852134Y-82015584D01*
X129873568Y-82086240D01*
X129894163Y-82154132D01*
X129962413Y-82281819D01*
X130054262Y-82393737D01*
X130082307Y-82416753D01*
X130391156Y-82725603D01*
X130341500Y-82975240D01*
X130341500Y-83267760D01*
X130398568Y-83554658D01*
X130510510Y-83824911D01*
X130673025Y-84068132D01*
X130879868Y-84274975D01*
X131062034Y-84396695D01*
X130945145Y-84466322D01*
X130728912Y-84661231D01*
X130554859Y-84894580D01*
X130429675Y-85157401D01*
X130385024Y-85304610D01*
X130506345Y-85534500D01*
X131699500Y-85534500D01*
X131699500Y-85514500D01*
X131953500Y-85514500D01*
X131953500Y-85534500D01*
X133146655Y-85534500D01*
X133267976Y-85304610D01*
X133223325Y-85157401D01*
X133098141Y-84894580D01*
X132924088Y-84661231D01*
X132707855Y-84466322D01*
X132590966Y-84396695D01*
X132773132Y-84274975D01*
X132979975Y-84068132D01*
X133121383Y-83856500D01*
X139605557Y-83856500D01*
X139463510Y-84069089D01*
X139351568Y-84339342D01*
X139294500Y-84626240D01*
X139294500Y-84918760D01*
X139344156Y-85168397D01*
X132526547Y-91986006D01*
X132272135Y-91935400D01*
X132090847Y-91935400D01*
X129106600Y-88951154D01*
X129106600Y-86018390D01*
X130385024Y-86018390D01*
X130429675Y-86165599D01*
X130554859Y-86428420D01*
X130728912Y-86661769D01*
X130945145Y-86856678D01*
X131195248Y-87005657D01*
X131469609Y-87102981D01*
X131699500Y-86982314D01*
X131699500Y-85788500D01*
X131953500Y-85788500D01*
X131953500Y-86982314D01*
X132183391Y-87102981D01*
X132457752Y-87005657D01*
X132707855Y-86856678D01*
X132924088Y-86661769D01*
X133098141Y-86428420D01*
X133223325Y-86165599D01*
X133267976Y-86018390D01*
X133146655Y-85788500D01*
X131953500Y-85788500D01*
X131699500Y-85788500D01*
X130506345Y-85788500D01*
X130385024Y-86018390D01*
X129106600Y-86018390D01*
X129106600Y-71583102D01*
X131317703Y-71583102D01*
X131389286Y-71827071D01*
X131644796Y-71947971D01*
X131918984Y-72016700D01*
X132201312Y-72030617D01*
X132480930Y-71989187D01*
X132747092Y-71894003D01*
X132872314Y-71827071D01*
X132943897Y-71583102D01*
X132130800Y-70770005D01*
X131317703Y-71583102D01*
X129106600Y-71583102D01*
X129106600Y-70660912D01*
X130690583Y-70660912D01*
X130732013Y-70940530D01*
X130827197Y-71206692D01*
X130894129Y-71331914D01*
X131138098Y-71403497D01*
X131951195Y-70590400D01*
X132310405Y-70590400D01*
X133123502Y-71403497D01*
X133367471Y-71331914D01*
X133488371Y-71076404D01*
X133557100Y-70802216D01*
X133571017Y-70519888D01*
X133529587Y-70240270D01*
X133434403Y-69974108D01*
X133367471Y-69848886D01*
X133123502Y-69777303D01*
X132310405Y-70590400D01*
X131951195Y-70590400D01*
X131138098Y-69777303D01*
X130894129Y-69848886D01*
X130773229Y-70104396D01*
X130704500Y-70378584D01*
X130690583Y-70660912D01*
X129106600Y-70660912D01*
X129106600Y-69597698D01*
X131317703Y-69597698D01*
X132130800Y-70410795D01*
X132943897Y-69597698D01*
X132872314Y-69353729D01*
X132616804Y-69232829D01*
X132342616Y-69164100D01*
X132060288Y-69150183D01*
X131780670Y-69191613D01*
X131514508Y-69286797D01*
X131389286Y-69353729D01*
X131317703Y-69597698D01*
X129106600Y-69597698D01*
X129106600Y-69093344D01*
X134278000Y-63921945D01*
X134278000Y-63944502D01*
X134436748Y-63944502D01*
X134278000Y-64103250D01*
X134274928Y-64667500D01*
X134287188Y-64791982D01*
X134323498Y-64911680D01*
X134382463Y-65021994D01*
X134461815Y-65118685D01*
X134558506Y-65198037D01*
X134668820Y-65257002D01*
X134788518Y-65293312D01*
X134913000Y-65305572D01*
X135477250Y-65302500D01*
X135636000Y-65143750D01*
X135636000Y-63944500D01*
X135616000Y-63944500D01*
X135616000Y-63690500D01*
X135636000Y-63690500D01*
X135636000Y-63670500D01*
X135890000Y-63670500D01*
X135890000Y-63690500D01*
G37*
G04 #@! TD.AperFunction*
M02*
